<?xml version="1.0" encoding="utf-8"?>
<!-- Generator: Adobe Illustrator 16.0.0, SVG Export Plug-In . SVG Version: 6.00 Build 0)  -->
<!DOCTYPE svg PUBLIC "-//W3C//DTD SVG 1.1//EN" "http://www.w3.org/Graphics/SVG/1.1/DTD/svg11.dtd">
<svg version="1.1" id="Layer_1" xmlns="http://www.w3.org/2000/svg" xmlns:xlink="http://www.w3.org/1999/xlink" x="0px" y="0px"
	 width="225.886px" height="46.97px" viewBox="0 0 225.886 46.97" enable-background="new 0 0 225.886 46.97" xml:space="preserve">
<g>
	<polygon fill="#17CC87" points="44.197,16.09 39.964,16.09 39.964,21.557 34.549,21.557 34.549,25.789 39.964,25.789 39.964,30.92 
		44.197,30.92 44.197,25.789 49.381,25.789 49.381,21.557 44.197,21.557 	"/>
	<path fill="#17CC87" d="M29.155,0C13.055,0,0,10.435,0,23.307c0,12.87,13.055,23.306,29.155,23.306
		c16.104,0,29.159-10.436,29.159-23.306C58.314,10.435,45.26,0,29.155,0z M26.395,40.991C15.163,40.039,7.453,33.332,5.826,26.132
		h20.568V40.991z M26.395,20.61H5.796c1.562-7.25,9.299-14.03,20.598-14.989V20.61z M31.918,40.991V5.621
		C44.614,6.7,52.811,15.123,52.811,23.307C52.811,31.489,44.614,39.913,31.918,40.991z"/>
	<path fill="#17CC87" d="M71.917,13.728c1.377,1.194,3.117,1.648,5.19,1.648c0.969,0,2.119-0.104,2.724-0.348
		c0.257-0.106,0.317-0.181,0.393-0.438c0.151-0.515,0.333-1.831,0.333-2.013c0-0.121-0.03-0.227-0.137-0.227
		c-0.121,0-0.151,0.06-0.196,0.302c-0.06,0.272-0.257,0.711-0.515,0.999c-0.604,0.696-1.422,0.847-2.769,0.847
		c-2.027,0-4.766-1.785-4.766-5.386c0-1.468,0.287-2.906,1.393-3.919c0.665-0.605,1.527-0.939,2.844-0.939
		c1.392,0,2.572,0.409,3.072,0.939c0.378,0.394,0.575,0.923,0.59,1.392c0,0.212,0.03,0.333,0.151,0.333
		c0.136,0,0.167-0.12,0.182-0.348c0.031-0.303,0.015-1.135,0.045-1.634c0.031-0.529,0.076-0.711,0.076-0.832
		c0-0.091-0.061-0.166-0.227-0.181c-0.454-0.046-0.938-0.183-1.513-0.258c-0.696-0.091-1.256-0.151-2.194-0.151
		c-2.255,0-3.692,0.604-4.782,1.604c-1.453,1.332-1.771,3.117-1.771,4.146C70.041,10.731,70.435,12.426,71.917,13.728z"/>
	<path fill="#17CC87" d="M82.372,3.998c0.197,0,0.378,0.015,0.5,0.045c0.499,0.106,0.62,0.348,0.65,0.863
		c0.03,0.484,0.03,0.908,0.03,3.208v2.663c0,1.392,0,2.588-0.076,3.223c-0.061,0.439-0.136,0.772-0.439,0.833
		c-0.136,0.029-0.317,0.061-0.544,0.061c-0.182,0-0.242,0.045-0.242,0.121c0,0.105,0.105,0.151,0.303,0.151
		c0.302,0,0.696-0.03,1.044-0.03c0.364-0.016,0.696-0.016,0.863-0.016c0.621,0,1.165,0.016,1.846,0.046
		c0.681,0.015,1.468,0.045,2.557,0.045c0.787,0,0.862-0.075,0.954-0.409c0.121-0.439,0.227-1.573,0.227-1.74
		c0-0.182-0.016-0.257-0.121-0.257c-0.121,0-0.151,0.091-0.167,0.227c-0.031,0.288-0.212,0.711-0.394,0.909
		c-0.379,0.408-0.969,0.422-1.771,0.422c-1.18,0-1.574-0.104-1.831-0.332c-0.318-0.271-0.318-1.316-0.318-3.253V8.113
		c0-2.299,0-2.724,0.03-3.208c0.03-0.53,0.151-0.788,0.56-0.863c0.181-0.031,0.424-0.045,0.59-0.045c0.182,0,0.272-0.03,0.272-0.136
		c0-0.106-0.106-0.137-0.317-0.137c-0.589,0-1.695,0.045-2.058,0.045c-0.408,0-1.361-0.045-2.073-0.045
		c-0.228,0-0.333,0.031-0.333,0.137C82.115,3.967,82.206,3.998,82.372,3.998z"/>
	<path fill="#17CC87" d="M92.604,2.56c0.03,0,0.137-0.06,0.257-0.121c0.56-0.302,1.756-0.787,2.587-0.893
		c0.303-0.03,0.439,0,0.515,0c0.076,0,0.167-0.045,0.076-0.227c-0.182-0.409-0.318-0.696-0.439-0.908
		c-0.076-0.136-0.106-0.182-0.212-0.182c-0.045,0-0.151,0.03-0.303,0.137c-0.242,0.151-1.831,1.332-2.436,1.907
		c-0.077,0.075-0.137,0.135-0.137,0.196C92.514,2.529,92.574,2.56,92.604,2.56z"/>
	<path fill="#17CC87" d="M91.5,3.998c0.182,0,0.378,0.015,0.545,0.061c0.333,0.076,0.483,0.333,0.514,0.848
		c0.03,0.484,0.03,0.908,0.03,3.208v2.663c0,1.469,0,2.664-0.075,3.299c-0.045,0.438-0.136,0.696-0.439,0.757
		c-0.136,0.029-0.317,0.061-0.544,0.061c-0.182,0-0.243,0.045-0.243,0.121c0,0.105,0.106,0.151,0.303,0.151
		c0.606,0,1.559-0.046,1.907-0.046c0.409,0,1.362,0.046,2.36,0.046c0.167,0,0.288-0.046,0.288-0.151
		c0-0.076-0.076-0.121-0.242-0.121c-0.227,0-0.56-0.031-0.772-0.061c-0.454-0.061-0.56-0.334-0.605-0.742
		c-0.061-0.65-0.061-1.845-0.061-3.314V8.113c0-2.299,0-2.724,0.03-3.208c0.031-0.53,0.152-0.788,0.561-0.863
		c0.182-0.031,0.303-0.045,0.454-0.045c0.151,0,0.243-0.03,0.243-0.152c0-0.09-0.121-0.121-0.317-0.121
		c-0.576,0-1.469,0.045-1.847,0.045c-0.438,0-1.392-0.045-1.967-0.045c-0.243,0-0.364,0.031-0.364,0.121
		C91.257,3.967,91.349,3.998,91.5,3.998z"/>
	<path fill="#17CC87" d="M97.889,15.165c0.787,0,1.498-0.046,1.634-0.046c0.288,0,0.893,0.046,1.876,0.046
		c0.211,0,0.348-0.03,0.348-0.151c0-0.092-0.091-0.121-0.257-0.121c-0.242,0-0.53-0.016-0.787-0.106
		c-0.303-0.106-0.5-0.499-0.53-1.68l-0.167-6.355h0.045c0.272,0.288,1.952,2.179,3.601,3.813c1.574,1.559,3.512,3.541,4.465,4.449
		c0.166,0.166,0.348,0.333,0.514,0.333c0.137,0,0.197-0.137,0.197-0.47l0.166-9.548c0.016-0.848,0.137-1.165,0.561-1.286
		c0.182-0.045,0.303-0.045,0.453-0.045c0.182,0,0.272-0.045,0.272-0.136c0-0.122-0.151-0.137-0.348-0.137
		c-0.741,0-1.316,0.045-1.483,0.045c-0.316,0-1.044-0.045-1.83-0.045c-0.229,0-0.395,0.015-0.395,0.137
		c0,0.09,0.062,0.136,0.242,0.136c0.213,0,0.576,0,0.803,0.091c0.363,0.151,0.499,0.438,0.514,1.361l0.152,6.794h-0.076
		c-0.256-0.243-2.299-2.422-3.329-3.45c-2.208-2.194-4.509-4.661-4.69-4.857c-0.257-0.273-0.393-0.47-0.56-0.47
		c-0.151,0-0.196,0.212-0.196,0.515l-0.137,8.958c-0.015,1.316-0.075,1.755-0.469,1.876c-0.211,0.061-0.484,0.076-0.681,0.076
		c-0.151,0-0.242,0.029-0.242,0.121C97.557,15.149,97.692,15.165,97.889,15.165z"/>
	<path fill="#17CC87" d="M112.221,3.998c0.182,0,0.378,0.015,0.545,0.061c0.333,0.076,0.483,0.333,0.515,0.848
		c0.029,0.484,0.029,0.908,0.029,3.208v2.663c0,1.469,0,2.664-0.074,3.299c-0.046,0.438-0.137,0.696-0.439,0.757
		c-0.137,0.029-0.318,0.061-0.545,0.061c-0.182,0-0.242,0.045-0.242,0.121c0,0.105,0.105,0.151,0.303,0.151
		c0.605,0,1.559-0.046,1.906-0.046c0.409,0,1.361,0.046,2.361,0.046c0.166,0,0.287-0.046,0.287-0.151
		c0-0.076-0.076-0.121-0.242-0.121c-0.227,0-0.56-0.031-0.771-0.061c-0.455-0.061-0.561-0.334-0.605-0.742
		c-0.061-0.65-0.061-1.845-0.061-3.314V8.113c0-2.299,0-2.724,0.029-3.208c0.031-0.53,0.152-0.788,0.561-0.863
		c0.182-0.031,0.303-0.045,0.454-0.045s0.243-0.03,0.243-0.152c0-0.09-0.121-0.121-0.318-0.121c-0.576,0-1.469,0.045-1.847,0.045
		c-0.438,0-1.392-0.045-1.968-0.045c-0.241,0-0.362,0.031-0.362,0.121C111.979,3.967,112.07,3.998,112.221,3.998z"/>
	<path fill="#17CC87" d="M119.628,13.728c1.376,1.194,3.116,1.648,5.189,1.648c0.969,0,2.118-0.104,2.724-0.348
		c0.257-0.106,0.317-0.181,0.394-0.438c0.151-0.515,0.334-1.831,0.334-2.013c0-0.121-0.031-0.227-0.137-0.227
		c-0.121,0-0.152,0.06-0.197,0.302c-0.061,0.272-0.258,0.711-0.514,0.999c-0.605,0.696-1.423,0.847-2.77,0.847
		c-2.028,0-4.767-1.785-4.767-5.386c0-1.468,0.287-2.906,1.392-3.919c0.666-0.605,1.529-0.939,2.846-0.939
		c1.393,0,2.572,0.409,3.071,0.939c0.378,0.394,0.575,0.923,0.59,1.392c0,0.212,0.03,0.333,0.151,0.333
		c0.137,0,0.166-0.12,0.182-0.348c0.029-0.303,0.016-1.135,0.045-1.634c0.031-0.529,0.076-0.711,0.076-0.832
		c0-0.091-0.061-0.166-0.227-0.181c-0.455-0.046-0.938-0.183-1.514-0.258c-0.696-0.091-1.256-0.151-2.193-0.151
		c-2.256,0-3.692,0.604-4.782,1.604c-1.453,1.332-1.771,3.117-1.771,4.146C117.751,10.731,118.145,12.426,119.628,13.728z"/>
	<path fill="#17CC87" d="M128.987,15.165c0.787,0,1.619-0.046,1.786-0.046c0.469,0,1.119,0.046,1.604,0.046
		c0.167,0,0.258-0.03,0.258-0.151c0-0.092-0.045-0.121-0.228-0.121h-0.228c-0.469,0-0.604-0.197-0.604-0.469
		c0-0.182,0.075-0.545,0.228-0.923l0.816-2.164c0.031-0.091,0.061-0.122,0.137-0.122h3.374c0.075,0,0.121,0.031,0.151,0.106
		l1.211,3.208c0.075,0.182-0.031,0.318-0.137,0.348c-0.15,0.016-0.211,0.045-0.211,0.137c0,0.105,0.18,0.105,0.453,0.121
		c1.211,0.03,2.314,0.03,2.86,0.03c0.56,0,0.695-0.03,0.695-0.151c0-0.106-0.075-0.121-0.196-0.121
		c-0.182,0-0.409-0.016-0.635-0.061c-0.318-0.076-0.758-0.287-1.333-1.65c-0.968-2.3-3.389-8.474-3.753-9.306
		c-0.15-0.348-0.242-0.484-0.377-0.484c-0.152,0-0.242,0.167-0.424,0.605l-3.799,9.503c-0.303,0.756-0.59,1.271-1.286,1.361
		c-0.12,0.016-0.333,0.031-0.47,0.031c-0.12,0-0.181,0.029-0.181,0.121C128.7,15.135,128.791,15.165,128.987,15.165z M134.389,6.631
		c0.015-0.061,0.046-0.136,0.091-0.136s0.061,0.075,0.076,0.136l1.361,3.737c0.016,0.045,0,0.091-0.076,0.091h-2.783
		c-0.061,0-0.076-0.045-0.061-0.105L134.389,6.631z"/>
	<path fill="#17CC87" d="M146.453,14.982c0.65,0.289,1.33,0.394,2.208,0.394c0.802,0,1.649-0.136,2.406-0.62
		c1.089-0.711,1.423-1.755,1.423-2.633c0-1.438-0.651-2.481-2.482-3.858l-0.424-0.318c-1.256-0.953-1.604-1.482-1.604-2.179
		c0-0.908,0.681-1.559,1.801-1.559c0.984,0,1.422,0.454,1.648,0.741c0.318,0.394,0.395,0.864,0.395,1
		c0,0.182,0.045,0.273,0.15,0.273c0.121,0,0.167-0.122,0.167-0.455c0-1.18,0.062-1.619,0.062-1.816c0-0.106-0.076-0.151-0.213-0.182
		c-0.393-0.106-1.029-0.257-2.012-0.257c-2.104,0-3.496,1.195-3.496,2.859c0,1.226,0.574,2.285,2.24,3.586l0.695,0.545
		c1.256,0.983,1.482,1.68,1.482,2.421c0,0.802-0.665,1.725-2.027,1.725c-0.938,0-1.831-0.408-2.164-1.528
		c-0.076-0.257-0.136-0.575-0.136-0.771c0-0.122-0.015-0.258-0.151-0.258c-0.121,0-0.166,0.167-0.182,0.394
		c-0.015,0.242-0.076,1.15-0.076,1.982C146.164,14.801,146.209,14.877,146.453,14.982z"/>
	<path fill="#17CC87" d="M152.929,15.165c0.787,0,1.619-0.046,1.785-0.046c0.47,0,1.12,0.046,1.604,0.046
		c0.166,0,0.257-0.03,0.257-0.151c0-0.092-0.045-0.121-0.227-0.121h-0.227c-0.469,0-0.605-0.197-0.605-0.469
		c0-0.182,0.076-0.545,0.227-0.923l0.816-2.164c0.031-0.091,0.062-0.122,0.137-0.122h3.375c0.076,0,0.121,0.031,0.151,0.106
		l1.21,3.208c0.076,0.182-0.029,0.318-0.137,0.348c-0.15,0.016-0.211,0.045-0.211,0.137c0,0.105,0.182,0.105,0.453,0.121
		c1.211,0.03,2.315,0.03,2.859,0.03c0.561,0,0.696-0.03,0.696-0.151c0-0.106-0.075-0.121-0.196-0.121
		c-0.182,0-0.408-0.016-0.635-0.061c-0.318-0.076-0.758-0.287-1.332-1.65c-0.969-2.3-3.389-8.474-3.752-9.306
		c-0.152-0.348-0.242-0.484-0.379-0.484c-0.152,0-0.242,0.167-0.424,0.605l-3.798,9.503c-0.303,0.756-0.591,1.271-1.286,1.361
		c-0.121,0.016-0.333,0.031-0.469,0.031c-0.121,0-0.182,0.029-0.182,0.121C152.642,15.135,152.732,15.165,152.929,15.165z
		 M158.332,6.631c0.015-0.061,0.045-0.136,0.09-0.136c0.047,0,0.061,0.075,0.076,0.136l1.361,3.737c0.016,0.045,0,0.091-0.074,0.091
		H157c-0.061,0-0.076-0.045-0.061-0.105L158.332,6.631z"/>
	<path fill="#17CC87" d="M176.138,9.49c-0.5,0-1.301,0.045-1.77,0.045c-0.455,0-1.408-0.045-2.195-0.045
		c-0.211,0-0.318,0.03-0.318,0.151c0,0.091,0.092,0.121,0.228,0.121c0.212,0,0.47,0.015,0.591,0.045
		c0.499,0.105,0.636,0.348,0.65,0.863c0.016,0.454,0.016,1.028,0.016,1.785v1.423c0,0.257-0.061,0.453-0.288,0.56
		c-0.362,0.166-0.893,0.166-1.286,0.166c-3.193,0-5.266-2.437-5.266-5.689c0-1.861,0.545-2.996,1.393-3.707
		c1.059-0.878,2.163-0.938,2.996-0.938c1.709,0,2.92,0.696,3.373,1.18c0.395,0.424,0.469,0.908,0.516,1.256
		c0.015,0.121,0.045,0.196,0.151,0.196c0.12,0,0.166-0.075,0.166-0.317c0-1.891,0.106-2.314,0.106-2.481
		c0-0.106-0.031-0.166-0.213-0.181c-0.348-0.016-0.877-0.106-1.195-0.167c-0.303-0.061-1.634-0.242-2.678-0.242
		c-1.271,0-2.618,0.106-4.07,0.983c-1.377,0.832-2.633,2.526-2.633,4.948c0,4.176,3.283,5.931,6.99,5.931
		c1.18,0,2.664-0.166,3.646-0.681c0.182-0.105,0.197-0.136,0.197-0.545v-1.664c0-0.757,0-1.362,0.015-1.815
		c0.016-0.53,0.167-0.787,0.575-0.863c0.182-0.031,0.287-0.045,0.408-0.045c0.105,0,0.197-0.03,0.197-0.121
		C176.441,9.521,176.334,9.49,176.138,9.49z"/>
	<path fill="#17CC87" d="M200.985,14.893c-0.181,0-0.408-0.016-0.636-0.061c-0.316-0.076-0.756-0.287-1.331-1.65
		c-0.969-2.3-3.39-8.474-3.753-9.306c-0.151-0.348-0.242-0.484-0.379-0.484c-0.15,0-0.241,0.167-0.423,0.605l-3.798,9.503
		c-0.303,0.756-0.59,1.271-1.286,1.361c-0.108,0.014-0.285,0.026-0.42,0.029c-0.117-0.001-0.247-0.015-0.405-0.043
		c-0.227-0.047-0.848-0.152-1.695-1.03c-0.893-0.938-1.937-2.284-3.283-3.979c1.528-1.241,1.998-2.27,1.998-3.39
		c0-1.014-0.605-1.786-1.03-2.073c-0.816-0.56-1.83-0.65-2.784-0.65c-0.469,0-1.619,0.045-2.133,0.045
		c-0.318,0-1.271-0.045-2.074-0.045c-0.226,0-0.332,0.031-0.332,0.137c0,0.105,0.091,0.136,0.258,0.136
		c0.211,0,0.469,0.015,0.59,0.045c0.499,0.106,0.62,0.348,0.65,0.863c0.03,0.484,0.03,0.908,0.03,3.208v2.663
		c0,1.392,0,2.588-0.075,3.223c-0.061,0.439-0.137,0.772-0.439,0.833c-0.136,0.029-0.317,0.061-0.545,0.061
		c-0.182,0-0.242,0.045-0.242,0.121c0,0.105,0.105,0.151,0.303,0.151c0.605,0,1.559-0.046,1.847-0.046
		c0.228,0,1.347,0.046,2.225,0.046c0.196,0,0.303-0.046,0.303-0.151c0-0.076-0.062-0.121-0.183-0.121
		c-0.182,0-0.514-0.031-0.74-0.061c-0.455-0.061-0.546-0.394-0.59-0.833c-0.076-0.635-0.076-1.831-0.076-3.238V10.55
		c0-0.091,0.045-0.121,0.12-0.121l1.317,0.03c0.105,0,0.197,0.015,0.271,0.106c0.197,0.227,0.894,1.256,1.499,2.088
		c0.847,1.165,1.421,1.876,2.072,2.224c0.394,0.212,0.772,0.288,1.619,0.288h1.438c0.03,0,0.045-0.008,0.071-0.01
		c0.026,0.002,0.04,0.01,0.072,0.01c0.787,0,1.62-0.046,1.786-0.046c0.47,0,1.12,0.046,1.604,0.046c0.166,0,0.258-0.03,0.258-0.151
		c0-0.092-0.047-0.121-0.228-0.121h-0.228c-0.469,0-0.605-0.197-0.605-0.469c0-0.182,0.076-0.545,0.227-0.923l0.818-2.164
		c0.029-0.091,0.061-0.122,0.136-0.122h3.374c0.076,0,0.122,0.031,0.152,0.106l1.21,3.208c0.075,0.182-0.03,0.318-0.137,0.348
		c-0.151,0.016-0.212,0.045-0.212,0.137c0,0.105,0.182,0.105,0.455,0.121c1.21,0.03,2.314,0.03,2.859,0.03
		c0.561,0,0.695-0.03,0.695-0.151C201.181,14.907,201.106,14.893,200.985,14.893z M182.894,9.475
		c-0.271,0.196-0.469,0.257-1.073,0.257c-0.378,0-0.833-0.045-1.151-0.151c-0.105-0.045-0.135-0.106-0.135-0.272v-4.6
		c0-0.121,0.029-0.182,0.135-0.211c0.152-0.045,0.425-0.061,0.803-0.061c0.893,0,2.316,0.621,2.316,2.77
		C183.789,8.446,183.349,9.143,182.894,9.475z M195.871,10.458h-2.785c-0.06,0-0.074-0.045-0.06-0.105l1.392-3.722
		c0.016-0.061,0.046-0.136,0.092-0.136c0.045,0,0.061,0.075,0.074,0.136l1.363,3.737C195.961,10.413,195.947,10.458,195.871,10.458z
		"/>
	<path fill="#17CC87" d="M212.716,5.45c-1.648-1.725-4.176-1.725-6.066-1.725c-0.908,0-1.861,0.045-2.33,0.045
		c-0.424,0-1.377-0.045-2.18-0.045c-0.227,0-0.334,0.031-0.334,0.137c0,0.105,0.092,0.136,0.258,0.136
		c0.213,0,0.47,0.015,0.591,0.045c0.499,0.106,0.62,0.348,0.65,0.863c0.03,0.484,0.03,0.908,0.03,3.208v2.663
		c0,1.392,0,2.588-0.075,3.223c-0.062,0.439-0.137,0.772-0.439,0.833c-0.137,0.029-0.317,0.061-0.544,0.061
		c-0.182,0-0.243,0.045-0.243,0.121c0,0.105,0.106,0.151,0.303,0.151c0.303,0,0.696-0.03,1.044-0.03
		c0.363-0.016,0.696-0.016,0.863-0.016c0.378,0,0.908,0.046,1.482,0.091c0.574,0.046,1.195,0.091,1.74,0.091
		c2.8,0,4.373-1.074,5.069-1.786c0.847-0.862,1.649-2.315,1.649-4.221C214.185,7.493,213.474,6.237,212.716,5.45z M210.886,13.5
		c-0.908,0.787-1.938,1.089-3.48,1.089c-1.195,0-1.785-0.318-1.982-0.605c-0.121-0.167-0.151-0.771-0.166-1.15
		c-0.016-0.287-0.03-1.452-0.03-3.057V7.871c0-1.195,0-2.512,0.015-3.026c0-0.167,0.046-0.242,0.182-0.302
		c0.121-0.062,0.682-0.107,0.984-0.107c1.18,0,2.904,0.182,4.297,1.514c0.65,0.62,1.453,1.861,1.453,3.783
		C212.158,11.291,211.855,12.668,210.886,13.5z"/>
	<path fill="#17CC87" d="M225.691,14.893c-0.183,0-0.409-0.016-0.637-0.061c-0.317-0.076-0.756-0.287-1.331-1.65
		c-0.969-2.3-3.39-8.474-3.753-9.306c-0.151-0.348-0.242-0.484-0.379-0.484c-0.15,0-0.241,0.167-0.424,0.605l-3.797,9.503
		c-0.303,0.756-0.59,1.271-1.287,1.361c-0.121,0.016-0.332,0.031-0.469,0.031c-0.121,0-0.182,0.029-0.182,0.121
		c0,0.121,0.092,0.151,0.288,0.151c0.787,0,1.619-0.046,1.785-0.046c0.469,0,1.12,0.046,1.604,0.046c0.166,0,0.257-0.03,0.257-0.151
		c0-0.092-0.046-0.121-0.228-0.121h-0.227c-0.469,0-0.605-0.197-0.605-0.469c0-0.182,0.076-0.545,0.227-0.923l0.818-2.164
		c0.03-0.091,0.061-0.122,0.135-0.122h3.375c0.076,0,0.121,0.031,0.151,0.106l1.211,3.208c0.075,0.182-0.03,0.318-0.137,0.348
		c-0.15,0.016-0.212,0.045-0.212,0.137c0,0.105,0.182,0.105,0.454,0.121c1.21,0.03,2.315,0.03,2.86,0.03
		c0.561,0,0.695-0.03,0.695-0.151C225.886,14.907,225.811,14.893,225.691,14.893z M220.576,10.458h-2.784
		c-0.061,0-0.075-0.045-0.061-0.105l1.392-3.722c0.016-0.061,0.045-0.136,0.091-0.136s0.061,0.075,0.075,0.136l1.363,3.737
		C220.667,10.413,220.652,10.458,220.576,10.458z"/>
	<path fill="#17CC87" d="M72.599,32.523c0.454,0,0.923,0.016,1.574,0.045c0.65,0.017,1.483,0.047,2.618,0.047
		c0.574,0,0.711,0,0.816-0.395c0.076-0.303,0.197-1.331,0.197-1.68c0-0.15,0-0.271-0.121-0.271c-0.106,0-0.136,0.061-0.167,0.227
		c-0.106,0.62-0.288,0.938-0.681,1.12s-1.029,0.182-1.423,0.182c-1.542,0-1.785-0.228-1.815-1.271c-0.015-0.438,0-1.831,0-2.345
		v-1.196c0-0.091,0.015-0.151,0.091-0.151c0.363,0,1.861,0.016,2.149,0.045c0.56,0.062,0.771,0.289,0.847,0.591
		c0.045,0.196,0.045,0.394,0.061,0.544c0,0.077,0.03,0.137,0.136,0.137c0.136,0,0.136-0.166,0.136-0.287
		c0-0.105,0.045-0.711,0.061-1.014c0.06-0.771,0.121-1.014,0.121-1.105c0-0.09-0.045-0.12-0.106-0.12
		c-0.076,0-0.137,0.075-0.242,0.196c-0.137,0.151-0.363,0.196-0.727,0.227c-0.348,0.031-2.088,0.031-2.421,0.031
		c-0.091,0-0.106-0.062-0.106-0.167v-3.829c0-0.104,0.03-0.15,0.106-0.15c0.303,0,1.892,0.03,2.148,0.061
		c0.757,0.09,0.908,0.271,1.014,0.545c0.075,0.182,0.09,0.438,0.09,0.545c0,0.136,0.03,0.211,0.137,0.211
		c0.106,0,0.136-0.09,0.151-0.166c0.031-0.182,0.06-0.847,0.076-0.999c0.045-0.696,0.121-0.878,0.121-0.983
		c0-0.075-0.015-0.136-0.091-0.136c-0.075,0-0.166,0.046-0.242,0.061c-0.121,0.03-0.363,0.061-0.65,0.091
		c-0.287,0.016-3.299,0.016-3.783,0.016c-0.212,0-0.559-0.016-0.953-0.031c-0.378,0-0.818-0.015-1.226-0.015
		c-0.228,0-0.333,0.03-0.333,0.136c0,0.106,0.09,0.137,0.257,0.137c0.212,0,0.469,0.015,0.59,0.045
		c0.5,0.105,0.621,0.348,0.651,0.862c0.03,0.485,0.03,0.908,0.03,3.208v2.664c0,1.392,0,2.587-0.076,3.223
		c-0.061,0.439-0.136,0.771-0.439,0.832c-0.136,0.03-0.317,0.061-0.544,0.061c-0.182,0-0.242,0.045-0.242,0.121
		c0,0.105,0.105,0.15,0.303,0.15c0.302,0,0.695-0.029,1.043-0.029C72.099,32.523,72.432,32.523,72.599,32.523z"/>
	<path fill="#17CC87" d="M83.464,25.67l-0.424-0.318c-1.255-0.953-1.604-1.482-1.604-2.18c0-0.908,0.681-1.559,1.801-1.559
		c0.984,0,1.423,0.455,1.649,0.742c0.317,0.394,0.393,0.862,0.393,0.998c0,0.183,0.045,0.273,0.151,0.273
		c0.121,0,0.167-0.121,0.167-0.455c0-1.18,0.06-1.619,0.06-1.814c0-0.107-0.076-0.152-0.212-0.182
		c-0.394-0.106-1.029-0.258-2.013-0.258c-2.103,0-3.495,1.195-3.495,2.859c0,1.226,0.575,2.285,2.239,3.586l0.697,0.545
		c1.255,0.984,1.482,1.68,1.482,2.422c0,0.801-0.666,1.725-2.028,1.725c-0.938,0-1.83-0.408-2.163-1.528
		c-0.076-0.257-0.137-0.575-0.137-0.771c0-0.123-0.015-0.258-0.151-0.258c-0.121,0-0.166,0.166-0.181,0.393
		c-0.016,0.242-0.077,1.15-0.077,1.982c0,0.333,0.046,0.408,0.288,0.515c0.65,0.288,1.332,0.394,2.209,0.394
		c0.803,0,1.649-0.137,2.406-0.621c1.089-0.711,1.422-1.754,1.422-2.633C85.946,28.091,85.295,27.046,83.464,25.67z"/>
	<path fill="#17CC87" d="M95.003,21.992c-0.243-0.227-0.923-0.862-2.814-0.862c-0.696,0-1.574,0.046-2.194,0.046
		c-0.424,0-1.376-0.046-2.179-0.046c-0.227,0-0.333,0.03-0.333,0.136c0,0.106,0.091,0.137,0.257,0.137
		c0.212,0,0.47,0.015,0.59,0.045c0.499,0.105,0.62,0.348,0.65,0.862c0.03,0.485,0.03,0.908,0.03,3.208v2.664
		c0,1.392,0,2.587-0.075,3.223c-0.061,0.439-0.136,0.771-0.438,0.832c-0.137,0.03-0.318,0.061-0.545,0.061
		c-0.181,0-0.242,0.045-0.242,0.121c0,0.105,0.106,0.15,0.303,0.15c0.606,0,1.559-0.045,1.907-0.045
		c0.393,0,1.347,0.045,2.345,0.045c0.167,0,0.288-0.045,0.288-0.15c0-0.076-0.075-0.121-0.242-0.121c-0.227,0-0.56-0.03-0.771-0.061
		c-0.454-0.061-0.545-0.393-0.59-0.817c-0.075-0.65-0.075-1.846-0.075-3.237v-6.054c0-0.166,0.044-0.257,0.121-0.287
		c0.136-0.046,0.363-0.061,0.59-0.061c0.348,0,0.968,0.091,1.513,0.59c0.848,0.757,0.893,1.771,0.893,2.271
		c0,1.543-1.18,2.496-2.027,2.496c-0.318,0-0.424,0.046-0.424,0.167c0,0.106,0.106,0.121,0.182,0.136
		c0.076,0.016,0.242,0.016,0.317,0.016c2.149,0,3.723-1.514,3.723-3.662C95.76,22.991,95.336,22.31,95.003,21.992z"/>
	<path fill="#17CC87" d="M104.165,30.27c-0.106,0-0.137,0.061-0.167,0.227c-0.105,0.62-0.287,0.938-0.681,1.12
		s-1.028,0.182-1.422,0.182c-1.543,0-1.786-0.228-1.816-1.271c-0.015-0.438,0-1.831,0-2.345v-1.196c0-0.091,0.015-0.151,0.091-0.151
		c0.363,0,1.861,0.016,2.148,0.045c0.561,0.062,0.771,0.289,0.848,0.591c0.045,0.196,0.045,0.394,0.061,0.544
		c0,0.077,0.031,0.137,0.137,0.137c0.136,0,0.136-0.166,0.136-0.287c0-0.105,0.046-0.711,0.061-1.014
		c0.06-0.771,0.122-1.014,0.122-1.105c0-0.09-0.047-0.12-0.107-0.12c-0.075,0-0.137,0.075-0.242,0.196
		c-0.136,0.151-0.363,0.196-0.726,0.227c-0.349,0.031-2.088,0.031-2.421,0.031c-0.091,0-0.106-0.062-0.106-0.167v-3.829
		c0-0.104,0.03-0.15,0.106-0.15c0.303,0,1.891,0.03,2.149,0.061c0.756,0.09,0.908,0.271,1.014,0.545
		c0.076,0.182,0.09,0.438,0.09,0.545c0,0.136,0.031,0.211,0.137,0.211c0.107,0,0.137-0.09,0.152-0.166
		c0.029-0.182,0.061-0.847,0.075-0.999c0.045-0.696,0.121-0.878,0.121-0.983c0-0.075-0.015-0.136-0.091-0.136
		s-0.167,0.046-0.242,0.061c-0.121,0.03-0.363,0.061-0.65,0.091c-0.288,0.016-3.299,0.016-3.783,0.016
		c-0.212,0-0.56-0.016-0.954-0.031c-0.378,0-0.817-0.015-1.226-0.015c-0.227,0-0.333,0.03-0.333,0.136
		c0,0.106,0.091,0.137,0.258,0.137c0.212,0,0.469,0.015,0.589,0.045c0.5,0.105,0.621,0.348,0.651,0.862
		c0.031,0.485,0.031,0.908,0.031,3.208v2.664c0,1.392,0,2.587-0.076,3.223c-0.061,0.439-0.137,0.771-0.439,0.832
		c-0.137,0.03-0.317,0.061-0.544,0.061c-0.182,0-0.243,0.045-0.243,0.121c0,0.105,0.106,0.15,0.303,0.15
		c0.303,0,0.696-0.029,1.044-0.029c0.363-0.016,0.696-0.016,0.862-0.016c0.454,0,0.923,0.016,1.574,0.045
		c0.65,0.017,1.482,0.047,2.618,0.047c0.574,0,0.711,0,0.817-0.395c0.075-0.303,0.196-1.331,0.196-1.68
		C104.286,30.391,104.286,30.27,104.165,30.27z"/>
	<path fill="#17CC87" d="M129.67,32.418c0-0.105-0.076-0.121-0.196-0.121c-0.182,0-0.409-0.016-0.637-0.061
		c-0.317-0.076-0.756-0.287-1.331-1.648c-0.969-2.301-3.39-8.475-3.753-9.307c-0.151-0.349-0.242-0.484-0.379-0.484
		c-0.15,0-0.241,0.166-0.423,0.605l-3.798,9.502c-0.303,0.757-0.59,1.271-1.287,1.362c-0.107,0.013-0.284,0.025-0.419,0.028
		c-0.117-0.001-0.247-0.015-0.405-0.043c-0.227-0.046-0.848-0.152-1.695-1.029c-0.893-0.938-1.938-2.285-3.283-3.979
		c1.529-1.241,1.998-2.27,1.998-3.39c0-1.014-0.605-1.785-1.029-2.073c-0.816-0.56-1.831-0.65-2.784-0.65
		c-0.47,0-1.619,0.046-2.134,0.046c-0.318,0-1.271-0.046-2.073-0.046c-0.228,0-0.333,0.03-0.333,0.136
		c0,0.106,0.092,0.137,0.258,0.137c0.211,0,0.469,0.015,0.59,0.045c0.5,0.105,0.62,0.348,0.65,0.862
		c0.031,0.485,0.031,0.908,0.031,3.208v2.664c0,1.392,0,2.587-0.076,3.223c-0.061,0.439-0.137,0.771-0.439,0.832
		c-0.137,0.03-0.317,0.061-0.545,0.061c-0.182,0-0.242,0.045-0.242,0.121c0,0.105,0.106,0.15,0.303,0.15
		c0.606,0,1.559-0.045,1.848-0.045c0.226,0,1.346,0.045,2.223,0.045c0.197,0,0.303-0.045,0.303-0.15c0-0.076-0.06-0.121-0.182-0.121
		c-0.181,0-0.514-0.03-0.74-0.061c-0.455-0.061-0.545-0.393-0.59-0.832c-0.076-0.636-0.076-1.831-0.076-3.238v-0.212
		c0-0.091,0.045-0.121,0.121-0.121l1.316,0.03c0.105,0,0.197,0.016,0.271,0.105c0.197,0.227,0.893,1.256,1.498,2.089
		c0.848,1.165,1.424,1.876,2.074,2.224c0.393,0.213,0.771,0.287,1.618,0.287h1.438c0.03,0,0.046-0.008,0.071-0.01
		c0.027,0.002,0.041,0.01,0.074,0.01c0.785,0,1.617-0.045,1.785-0.045c0.469,0,1.119,0.045,1.604,0.045
		c0.166,0,0.257-0.029,0.257-0.15c0-0.091-0.046-0.121-0.227-0.121h-0.228c-0.469,0-0.605-0.197-0.605-0.47
		c0-0.181,0.076-0.544,0.227-0.923l0.818-2.163c0.029-0.091,0.061-0.122,0.136-0.122h3.374c0.076,0,0.121,0.031,0.152,0.106
		l1.21,3.208c0.075,0.182-0.03,0.318-0.136,0.348c-0.151,0.016-0.213,0.046-0.213,0.137c0,0.105,0.182,0.105,0.454,0.121
		c1.211,0.029,2.315,0.029,2.86,0.029C129.534,32.568,129.67,32.539,129.67,32.418z M111.382,26.879
		c-0.271,0.197-0.469,0.258-1.074,0.258c-0.378,0-0.832-0.045-1.148-0.151c-0.107-0.045-0.137-0.106-0.137-0.272v-4.6
		c0-0.121,0.029-0.182,0.137-0.213c0.15-0.045,0.423-0.06,0.801-0.06c0.893,0,2.316,0.62,2.316,2.77
		C112.277,25.851,111.837,26.547,111.382,26.879z M124.359,27.863h-2.785c-0.06,0-0.074-0.045-0.06-0.105l1.392-3.723
		c0.016-0.061,0.046-0.137,0.092-0.137c0.045,0,0.061,0.076,0.074,0.137l1.363,3.737C124.45,27.818,124.435,27.863,124.359,27.863z"
		/>
	<path fill="#17CC87" d="M134.142,32.568c0.211,0,0.348-0.029,0.348-0.15c0-0.091-0.09-0.121-0.257-0.121
		c-0.242,0-0.53-0.016-0.788-0.105c-0.302-0.106-0.498-0.5-0.528-1.68l-0.167-6.355h0.045c0.273,0.287,1.953,2.179,3.603,3.813
		c1.573,1.559,3.511,3.541,4.464,4.449c0.166,0.167,0.348,0.332,0.514,0.332c0.137,0,0.197-0.135,0.197-0.469l0.166-9.549
		c0.015-0.846,0.137-1.164,0.561-1.285c0.182-0.045,0.303-0.045,0.453-0.045c0.182,0,0.272-0.045,0.272-0.137
		c0-0.121-0.151-0.136-0.349-0.136c-0.74,0-1.316,0.046-1.482,0.046c-0.318,0-1.043-0.046-1.83-0.046
		c-0.228,0-0.395,0.015-0.395,0.136c0,0.092,0.061,0.137,0.242,0.137c0.213,0,0.575,0,0.803,0.09c0.363,0.152,0.5,0.439,0.514,1.363
		l0.152,6.793h-0.076c-0.258-0.241-2.301-2.421-3.328-3.449c-2.211-2.194-4.51-4.661-4.691-4.857
		c-0.258-0.272-0.395-0.47-0.561-0.47c-0.15,0-0.196,0.212-0.196,0.515l-0.136,8.958c-0.016,1.316-0.076,1.755-0.469,1.876
		c-0.213,0.061-0.485,0.076-0.682,0.076c-0.151,0-0.242,0.03-0.242,0.121c0,0.137,0.136,0.15,0.332,0.15
		c0.787,0,1.499-0.045,1.635-0.045C132.553,32.523,133.158,32.568,134.142,32.568z"/>
	<path fill="#17CC87" d="M151.066,34.779c0-0.682-0.682-1.105-1.785-1.211l1.088-0.818c0.243,0.016,0.516,0.031,0.803,0.031
		c0.969,0,2.119-0.105,2.725-0.349c0.257-0.105,0.316-0.181,0.393-0.438c0.151-0.515,0.333-1.831,0.333-2.012
		c0-0.122-0.03-0.227-0.136-0.227c-0.121,0-0.151,0.06-0.197,0.302c-0.061,0.272-0.257,0.711-0.515,0.999
		c-0.604,0.695-1.422,0.848-2.769,0.848c-2.028,0-4.767-1.786-4.767-5.388c0-1.468,0.288-2.905,1.392-3.919
		c0.666-0.605,1.529-0.938,2.846-0.938c1.391,0,2.572,0.409,3.072,0.938c0.377,0.394,0.574,0.922,0.589,1.392
		c0,0.212,0.03,0.333,0.151,0.333c0.137,0,0.166-0.121,0.182-0.348c0.03-0.303,0.016-1.135,0.045-1.635
		c0.031-0.529,0.076-0.711,0.076-0.832c0-0.091-0.061-0.166-0.227-0.182c-0.455-0.045-0.938-0.182-1.514-0.257
		c-0.696-0.091-1.256-0.151-2.194-0.151c-2.255,0-3.69,0.605-4.782,1.604c-1.451,1.332-1.77,3.117-1.77,4.146
		c0,3.858,2.693,5.629,5.508,6.008l-1.211,0.907c-0.195,0.151-0.242,0.182-0.242,0.228c0,0.045,0.121,0.091,0.334,0.121
		c1.014,0.15,1.195,0.695,1.195,1.104c0,0.636-0.771,1.014-1.271,1.014c-0.211,0-0.393,0.062-0.393,0.197
		c0,0.105,0.121,0.152,0.256,0.152C150.446,36.398,151.066,35.384,151.066,34.779z"/>
	<path fill="#17CC87" d="M167.31,32.297c-0.182,0-0.408-0.016-0.636-0.061c-0.317-0.076-0.757-0.287-1.331-1.648
		c-0.969-2.301-3.39-8.475-3.753-9.307c-0.151-0.349-0.242-0.484-0.378-0.484c-0.152,0-0.242,0.166-0.424,0.605l-3.798,9.502
		c-0.304,0.757-0.591,1.271-1.287,1.362c-0.12,0.015-0.333,0.03-0.469,0.03c-0.121,0-0.182,0.03-0.182,0.121
		c0,0.121,0.091,0.15,0.288,0.15c0.787,0,1.619-0.045,1.785-0.045c0.469,0,1.119,0.045,1.604,0.045c0.167,0,0.258-0.029,0.258-0.15
		c0-0.091-0.046-0.121-0.227-0.121h-0.229c-0.469,0-0.604-0.197-0.604-0.47c0-0.181,0.075-0.544,0.228-0.923l0.816-2.163
		c0.03-0.091,0.061-0.122,0.137-0.122h3.374c0.075,0,0.122,0.031,0.151,0.106l1.211,3.208c0.074,0.182-0.031,0.318-0.137,0.348
		c-0.15,0.016-0.212,0.046-0.212,0.137c0,0.105,0.182,0.105,0.454,0.121c1.211,0.029,2.314,0.029,2.859,0.029
		c0.561,0,0.696-0.029,0.696-0.15C167.506,32.313,167.431,32.297,167.31,32.297z M162.196,27.863h-2.784
		c-0.061,0-0.076-0.045-0.061-0.105l1.393-3.723c0.014-0.061,0.045-0.137,0.09-0.137c0.046,0,0.061,0.076,0.075,0.137l1.362,3.737
		C162.287,27.818,162.271,27.863,162.196,27.863z"/>
	<path fill="#17CC87" d="M78.677,46.65c-0.08,0-0.169-0.01-0.279-0.029c-0.15-0.03-0.559-0.101-1.118-0.68
		c-0.589-0.618-1.278-1.507-2.167-2.625c1.009-0.818,1.318-1.496,1.318-2.235c0-0.669-0.4-1.178-0.679-1.368
		c-0.54-0.369-1.208-0.428-1.837-0.428c-0.309,0-1.068,0.029-1.407,0.029c-0.209,0-0.838-0.029-1.367-0.029
		c-0.15,0-0.22,0.02-0.22,0.09c0,0.068,0.06,0.09,0.169,0.09c0.14,0,0.31,0.01,0.39,0.029c0.33,0.07,0.41,0.229,0.429,0.569
		c0.021,0.319,0.021,0.599,0.021,2.115v1.757c0,0.918,0,1.707-0.05,2.126c-0.04,0.29-0.09,0.509-0.29,0.549
		c-0.09,0.021-0.209,0.04-0.359,0.04c-0.12,0-0.16,0.029-0.16,0.08c0,0.069,0.07,0.1,0.2,0.1c0.399,0,1.028-0.03,1.217-0.03
		c0.149,0,0.888,0.03,1.467,0.03c0.129,0,0.199-0.03,0.199-0.1c0-0.051-0.04-0.08-0.119-0.08c-0.12,0-0.34-0.02-0.489-0.04
		c-0.299-0.04-0.359-0.259-0.389-0.549c-0.05-0.419-0.05-1.208-0.05-2.136v-0.141c0-0.059,0.03-0.079,0.08-0.079l0.868,0.021
		c0.07,0,0.13,0.01,0.18,0.069c0.13,0.149,0.589,0.828,0.988,1.378c0.559,0.768,0.938,1.236,1.367,1.467
		c0.259,0.14,0.51,0.189,1.068,0.189h0.948c0.12,0,0.19-0.02,0.19-0.1C78.797,46.68,78.757,46.65,78.677,46.65z M74.665,43.077
		c-0.18,0.13-0.31,0.17-0.708,0.17c-0.25,0-0.549-0.03-0.759-0.101c-0.07-0.029-0.09-0.069-0.09-0.18v-3.033
		c0-0.08,0.02-0.12,0.09-0.141c0.1-0.029,0.279-0.039,0.529-0.039c0.589,0,1.527,0.409,1.527,1.826
		C75.253,42.398,74.964,42.857,74.665,43.077z"/>
	<path fill="#17CC87" d="M83.918,45.313c-0.07,0-0.09,0.04-0.11,0.15c-0.069,0.409-0.189,0.619-0.449,0.738S82.68,46.32,82.42,46.32
		c-1.018,0-1.177-0.148-1.197-0.838c-0.01-0.289,0-1.207,0-1.547v-0.789c0-0.06,0.01-0.1,0.06-0.1c0.24,0,1.228,0.01,1.417,0.03
		c0.37,0.04,0.509,0.19,0.559,0.39c0.03,0.129,0.03,0.26,0.04,0.359c0,0.05,0.02,0.09,0.09,0.09c0.09,0,0.09-0.11,0.09-0.189
		c0-0.07,0.03-0.471,0.04-0.67c0.04-0.508,0.08-0.668,0.08-0.728c0-0.061-0.03-0.08-0.07-0.08c-0.05,0-0.09,0.05-0.16,0.13
		c-0.09,0.1-0.239,0.129-0.479,0.149c-0.229,0.021-1.376,0.021-1.596,0.021c-0.06,0-0.07-0.041-0.07-0.11v-2.525
		c0-0.069,0.02-0.1,0.07-0.1c0.199,0,1.248,0.021,1.417,0.04c0.499,0.06,0.599,0.18,0.668,0.359c0.05,0.119,0.061,0.289,0.061,0.359
		c0,0.09,0.02,0.14,0.09,0.14c0.07,0,0.09-0.061,0.1-0.11c0.02-0.119,0.04-0.559,0.05-0.658c0.03-0.459,0.08-0.578,0.08-0.648
		c0-0.051-0.01-0.091-0.06-0.091c-0.05,0-0.11,0.03-0.16,0.04c-0.08,0.021-0.239,0.041-0.429,0.061
		c-0.189,0.01-2.175,0.01-2.495,0.01c-0.14,0-0.37-0.01-0.629-0.02c-0.25,0-0.54-0.01-0.809-0.01c-0.149,0-0.22,0.02-0.22,0.09
		c0,0.068,0.06,0.09,0.17,0.09c0.14,0,0.309,0.01,0.389,0.029c0.33,0.07,0.41,0.229,0.43,0.569c0.02,0.319,0.02,0.599,0.02,2.115
		v1.757c0,0.918,0,1.707-0.05,2.126c-0.04,0.29-0.09,0.509-0.29,0.549c-0.09,0.021-0.21,0.04-0.359,0.04
		c-0.12,0-0.16,0.029-0.16,0.08c0,0.069,0.07,0.1,0.2,0.1c0.199,0,0.459-0.02,0.688-0.02c0.24-0.011,0.459-0.011,0.569-0.011
		c0.299,0,0.608,0.011,1.038,0.03c0.429,0.01,0.978,0.03,1.727,0.03c0.379,0,0.469,0,0.539-0.261c0.05-0.199,0.13-0.878,0.13-1.107
		C83.998,45.393,83.998,45.313,83.918,45.313z"/>
	<path fill="#17CC87" d="M88.958,39.285c-0.599,0-1.228,0.029-1.537,0.029c-0.279,0-0.908-0.029-1.437-0.029
		c-0.149,0-0.22,0.02-0.22,0.09c0,0.068,0.06,0.09,0.17,0.09c0.14,0,0.309,0.01,0.389,0.029c0.33,0.07,0.409,0.229,0.429,0.569
		c0.02,0.319,0.02,0.599,0.02,2.115v1.757c0,0.918,0,1.707-0.05,2.126c-0.039,0.29-0.09,0.509-0.29,0.549
		c-0.09,0.021-0.209,0.04-0.359,0.04c-0.12,0-0.16,0.029-0.16,0.08c0,0.069,0.07,0.1,0.2,0.1c0.199,0,0.459-0.02,0.688-0.02
		c0.24-0.011,0.459-0.011,0.569-0.011c0.249,0,0.598,0.03,0.978,0.061c0.379,0.029,0.789,0.06,1.148,0.06
		c1.846,0,2.884-0.709,3.343-1.178c0.559-0.568,1.088-1.527,1.088-2.785c0-1.188-0.469-2.016-0.968-2.535
		C91.873,39.285,90.207,39.285,88.958,39.285z M91.753,45.732c-0.599,0.519-1.278,0.719-2.295,0.719c-0.789,0-1.178-0.21-1.308-0.4
		c-0.08-0.109-0.099-0.509-0.109-0.758c-0.01-0.189-0.02-0.958-0.02-2.016V42.02c0-0.789,0-1.657,0.01-1.996
		c0-0.11,0.029-0.16,0.119-0.199c0.081-0.041,0.45-0.07,0.649-0.07c0.779,0,1.916,0.119,2.834,0.998
		c0.43,0.408,0.958,1.228,0.958,2.495C92.592,44.275,92.392,45.184,91.753,45.732z"/>
	<path fill="#17CC87" d="M100.467,45.313c-0.069,0-0.089,0.04-0.109,0.15c-0.07,0.409-0.189,0.619-0.449,0.738
		c-0.259,0.119-0.679,0.119-0.938,0.119c-1.018,0-1.178-0.148-1.198-0.838c-0.01-0.289,0-1.207,0-1.547v-0.789
		c0-0.06,0.01-0.1,0.06-0.1c0.24,0,1.228,0.01,1.417,0.03c0.369,0.04,0.509,0.19,0.559,0.39c0.03,0.129,0.03,0.26,0.04,0.359
		c0,0.05,0.02,0.09,0.089,0.09c0.09,0,0.09-0.11,0.09-0.189c0-0.07,0.03-0.471,0.04-0.67c0.04-0.508,0.08-0.668,0.08-0.728
		c0-0.061-0.029-0.08-0.07-0.08c-0.05,0-0.089,0.05-0.159,0.13c-0.09,0.1-0.24,0.129-0.479,0.149
		c-0.23,0.021-1.378,0.021-1.597,0.021c-0.06,0-0.07-0.041-0.07-0.11v-2.525c0-0.069,0.02-0.1,0.07-0.1
		c0.2,0,1.247,0.021,1.417,0.04c0.499,0.06,0.599,0.18,0.669,0.359c0.05,0.119,0.06,0.289,0.06,0.359c0,0.09,0.02,0.14,0.089,0.14
		s0.09-0.061,0.1-0.11c0.02-0.119,0.04-0.559,0.05-0.658c0.03-0.459,0.08-0.578,0.08-0.648c0-0.051-0.01-0.091-0.061-0.091
		c-0.049,0-0.109,0.03-0.159,0.04c-0.081,0.021-0.24,0.041-0.43,0.061c-0.19,0.01-2.176,0.01-2.496,0.01
		c-0.139,0-0.369-0.01-0.628-0.02c-0.249,0-0.539-0.01-0.808-0.01c-0.15,0-0.22,0.02-0.22,0.09c0,0.068,0.06,0.09,0.17,0.09
		c0.139,0,0.309,0.01,0.389,0.029c0.329,0.07,0.409,0.229,0.429,0.569c0.02,0.319,0.02,0.599,0.02,2.115v1.757
		c0,0.918,0,1.707-0.05,2.126c-0.04,0.29-0.09,0.509-0.29,0.549c-0.09,0.021-0.209,0.04-0.359,0.04c-0.12,0-0.16,0.029-0.16,0.08
		c0,0.069,0.07,0.1,0.2,0.1c0.2,0,0.459-0.02,0.689-0.02c0.239-0.011,0.459-0.011,0.569-0.011c0.299,0,0.608,0.011,1.038,0.03
		c0.43,0.01,0.979,0.03,1.727,0.03c0.379,0,0.469,0,0.539-0.261c0.049-0.199,0.13-0.878,0.13-1.107
		C100.548,45.393,100.548,45.313,100.467,45.313z"/>
	<path fill="#17CC87" d="M109.002,39.285c-0.599,0-1.228,0.029-1.537,0.029c-0.279,0-0.908-0.029-1.437-0.029
		c-0.15,0-0.221,0.02-0.221,0.09c0,0.068,0.061,0.09,0.17,0.09c0.14,0,0.309,0.01,0.389,0.029c0.33,0.07,0.41,0.229,0.43,0.569
		c0.02,0.319,0.02,0.599,0.02,2.115v1.757c0,0.918,0,1.707-0.05,2.126c-0.039,0.29-0.089,0.509-0.29,0.549
		c-0.088,0.021-0.209,0.04-0.358,0.04c-0.12,0-0.159,0.029-0.159,0.08c0,0.069,0.07,0.1,0.199,0.1c0.199,0,0.459-0.02,0.688-0.02
		c0.24-0.011,0.46-0.011,0.569-0.011c0.25,0,0.599,0.03,0.979,0.061c0.379,0.029,0.788,0.06,1.146,0.06
		c1.848,0,2.885-0.709,3.344-1.178c0.559-0.568,1.088-1.527,1.088-2.785c0-1.188-0.469-2.016-0.968-2.535
		C111.917,39.285,110.25,39.285,109.002,39.285z M111.796,45.732c-0.599,0.519-1.277,0.719-2.295,0.719
		c-0.789,0-1.178-0.21-1.308-0.4c-0.08-0.109-0.101-0.509-0.11-0.758c-0.01-0.189-0.02-0.958-0.02-2.016V42.02
		c0-0.789,0-1.657,0.01-1.996c0-0.11,0.03-0.16,0.12-0.199c0.079-0.041,0.449-0.07,0.648-0.07c0.778,0,1.917,0.119,2.835,0.998
		c0.43,0.408,0.958,1.228,0.958,2.495C112.635,44.275,112.436,45.184,111.796,45.732z"/>
	<path fill="#17CC87" d="M120.511,45.313c-0.07,0-0.09,0.04-0.109,0.15c-0.07,0.409-0.189,0.619-0.449,0.738
		s-0.68,0.119-0.939,0.119c-1.018,0-1.178-0.148-1.197-0.838c-0.01-0.289,0-1.207,0-1.547v-0.789c0-0.06,0.01-0.1,0.061-0.1
		c0.239,0,1.227,0.01,1.418,0.03c0.368,0.04,0.508,0.19,0.559,0.39c0.029,0.129,0.029,0.26,0.039,0.359c0,0.05,0.02,0.09,0.09,0.09
		c0.09,0,0.09-0.11,0.09-0.189c0-0.07,0.029-0.471,0.04-0.67c0.04-0.508,0.079-0.668,0.079-0.728c0-0.061-0.029-0.08-0.069-0.08
		c-0.05,0-0.09,0.05-0.159,0.13c-0.09,0.1-0.24,0.129-0.479,0.149c-0.229,0.021-1.378,0.021-1.597,0.021
		c-0.061,0-0.07-0.041-0.07-0.11v-2.525c0-0.069,0.02-0.1,0.07-0.1c0.199,0,1.248,0.021,1.418,0.04
		c0.498,0.06,0.598,0.18,0.668,0.359c0.05,0.119,0.06,0.289,0.06,0.359c0,0.09,0.021,0.14,0.09,0.14s0.091-0.061,0.101-0.11
		c0.02-0.119,0.039-0.559,0.049-0.658c0.03-0.459,0.08-0.578,0.08-0.648c0-0.051-0.01-0.091-0.06-0.091s-0.11,0.03-0.159,0.04
		c-0.08,0.021-0.24,0.041-0.43,0.061c-0.189,0.01-2.176,0.01-2.496,0.01c-0.139,0-0.369-0.01-0.628-0.02
		c-0.249,0-0.538-0.01-0.81-0.01c-0.148,0-0.219,0.02-0.219,0.09c0,0.068,0.061,0.09,0.17,0.09c0.139,0,0.31,0.01,0.39,0.029
		c0.329,0.07,0.409,0.229,0.429,0.569c0.02,0.319,0.02,0.599,0.02,2.115v1.757c0,0.918,0,1.707-0.049,2.126
		c-0.041,0.29-0.09,0.509-0.29,0.549c-0.09,0.021-0.21,0.04-0.36,0.04c-0.119,0-0.158,0.029-0.158,0.08c0,0.069,0.068,0.1,0.199,0.1
		c0.199,0,0.459-0.02,0.688-0.02c0.239-0.011,0.459-0.011,0.569-0.011c0.299,0,0.609,0.011,1.037,0.03
		c0.43,0.01,0.979,0.03,1.728,0.03c0.379,0,0.469,0,0.538-0.261c0.051-0.199,0.13-0.878,0.13-1.107
		C120.59,45.393,120.59,45.313,120.511,45.313z"/>
	<path fill="#17CC87" d="M128.657,42.279l-0.28-0.21c-0.828-0.629-1.058-0.978-1.058-1.438c0-0.599,0.449-1.028,1.188-1.028
		c0.648,0,0.938,0.3,1.088,0.489c0.209,0.26,0.258,0.569,0.258,0.659c0,0.119,0.031,0.18,0.102,0.18c0.08,0,0.109-0.08,0.109-0.3
		c0-0.778,0.04-1.067,0.04-1.197c0-0.069-0.05-0.101-0.14-0.12c-0.26-0.07-0.68-0.17-1.328-0.17c-1.387,0-2.306,0.789-2.306,1.887
		c0,0.809,0.38,1.508,1.478,2.365l0.459,0.359c0.828,0.648,0.979,1.107,0.979,1.597c0,0.529-0.439,1.138-1.338,1.138
		c-0.619,0-1.207-0.27-1.428-1.008c-0.05-0.17-0.09-0.379-0.09-0.51c0-0.079-0.01-0.169-0.1-0.169c-0.08,0-0.109,0.11-0.119,0.259
		c-0.01,0.16-0.05,0.76-0.05,1.309c0,0.22,0.03,0.27,0.188,0.339c0.43,0.19,0.879,0.26,1.458,0.26c0.529,0,1.088-0.09,1.587-0.409
		c0.719-0.469,0.938-1.158,0.938-1.736C130.293,43.876,129.864,43.188,128.657,42.279z"/>
	<path fill="#17CC87" d="M138.977,46.65c-0.12,0-0.27-0.01-0.419-0.04c-0.209-0.05-0.499-0.19-0.879-1.088
		c-0.639-1.518-2.234-5.509-2.475-6.058c-0.1-0.23-0.16-0.32-0.25-0.32c-0.1,0-0.159,0.109-0.279,0.399l-2.505,6.188
		c-0.2,0.499-0.39,0.838-0.849,0.898c-0.08,0.01-0.22,0.02-0.309,0.02c-0.08,0-0.121,0.02-0.121,0.08c0,0.08,0.061,0.1,0.191,0.1
		c0.518,0,1.066-0.03,1.176-0.03c0.311,0,0.74,0.03,1.059,0.03c0.109,0,0.17-0.02,0.17-0.1c0-0.061-0.029-0.08-0.15-0.08h-0.148
		c-0.311,0-0.4-0.13-0.4-0.31c0-0.12,0.051-0.359,0.15-0.608l0.539-1.367c0.02-0.061,0.04-0.08,0.09-0.08h2.225
		c0.051,0,0.08,0.02,0.101,0.07l0.798,2.055c0.051,0.12-0.02,0.211-0.089,0.23c-0.101,0.01-0.14,0.029-0.14,0.09
		c0,0.069,0.119,0.069,0.299,0.08c0.799,0.02,1.527,0.02,1.887,0.02c0.369,0,0.459-0.02,0.459-0.1
		C139.107,46.66,139.056,46.65,138.977,46.65z M135.603,43.785h-1.836c-0.04,0-0.05-0.029-0.04-0.069l0.919-2.444
		c0.01-0.041,0.029-0.091,0.06-0.091s0.04,0.05,0.05,0.091l0.898,2.455C135.664,43.756,135.654,43.785,135.603,43.785z"/>
	<path fill="#17CC87" d="M146.953,39.285c-0.389,0-1.018,0.029-1.138,0.029c-0.01,0-0.638-0.029-1.147-0.029
		c-0.141,0-0.21,0.02-0.21,0.09c0,0.068,0.06,0.09,0.169,0.09c0.111,0,0.28,0.01,0.36,0.029c0.329,0.07,0.409,0.229,0.429,0.569
		c0.021,0.319,0.021,0.599,0.021,2.115v1.248c0,1.028-0.03,1.926-0.579,2.476c-0.399,0.398-0.938,0.538-1.378,0.538
		c-0.339,0-0.798-0.04-1.247-0.409c-0.489-0.398-0.779-1.008-0.779-2.455v-1.397c0-1.517,0-1.796,0.021-2.115
		c0.021-0.351,0.1-0.52,0.369-0.569c0.12-0.02,0.181-0.029,0.29-0.029c0.1,0,0.16-0.021,0.16-0.09c0-0.07-0.07-0.09-0.221-0.09
		c-0.359,0-0.988,0.029-1.227,0.029c-0.3,0-0.929-0.029-1.457-0.029c-0.15,0-0.221,0.02-0.221,0.09c0,0.068,0.061,0.09,0.17,0.09
		c0.14,0,0.309,0.01,0.389,0.029c0.33,0.07,0.41,0.229,0.43,0.569c0.02,0.319,0.02,0.599,0.02,2.115v1.458
		c0,1.447,0.38,2.186,0.889,2.645c0.729,0.658,1.688,0.688,2.216,0.688c0.649,0,1.368-0.109,2.076-0.719
		c0.839-0.718,0.948-1.896,0.948-3.004v-1.068c0-1.517,0-1.796,0.02-2.115c0.02-0.351,0.1-0.52,0.37-0.569
		c0.12-0.02,0.179-0.029,0.289-0.029c0.12,0,0.18-0.021,0.18-0.09C147.163,39.305,147.093,39.285,146.953,39.285z"/>
	<path fill="#17CC87" d="M142.742,38.456c0,0.04,0.039,0.06,0.059,0.06c0.021,0,0.09-0.039,0.17-0.08
		c0.37-0.199,1.158-0.518,1.707-0.588c0.199-0.021,0.289,0,0.339,0s0.11-0.03,0.05-0.15c-0.119-0.27-0.209-0.459-0.289-0.599
		c-0.05-0.09-0.07-0.12-0.14-0.12c-0.03,0-0.101,0.021-0.2,0.09c-0.158,0.101-1.207,0.879-1.606,1.258
		C142.781,38.377,142.742,38.416,142.742,38.456z"/>
	<path fill="#17CC87" d="M151.794,39.285c-0.599,0-1.228,0.029-1.537,0.029c-0.279,0-0.908-0.029-1.438-0.029
		c-0.149,0-0.219,0.02-0.219,0.09c0,0.068,0.06,0.09,0.169,0.09c0.14,0,0.31,0.01,0.39,0.029c0.329,0.07,0.408,0.229,0.43,0.569
		c0.02,0.319,0.02,0.599,0.02,2.115v1.757c0,0.918,0,1.707-0.051,2.126c-0.039,0.29-0.09,0.509-0.289,0.549
		c-0.09,0.021-0.209,0.04-0.359,0.04c-0.119,0-0.159,0.029-0.159,0.08c0,0.069,0.069,0.1,0.2,0.1c0.199,0,0.459-0.02,0.688-0.02
		c0.24-0.011,0.459-0.011,0.569-0.011c0.249,0,0.599,0.03,0.979,0.061c0.379,0.029,0.788,0.06,1.147,0.06
		c1.847,0,2.885-0.709,3.344-1.178c0.559-0.568,1.088-1.527,1.088-2.785c0-1.188-0.469-2.016-0.969-2.535
		C154.708,39.285,153.042,39.285,151.794,39.285z M154.589,45.732c-0.6,0.519-1.277,0.719-2.296,0.719
		c-0.788,0-1.177-0.21-1.308-0.4c-0.08-0.109-0.1-0.509-0.109-0.758c-0.011-0.189-0.021-0.958-0.021-2.016V42.02
		c0-0.789,0-1.657,0.01-1.996c0-0.11,0.03-0.16,0.12-0.199c0.08-0.041,0.449-0.07,0.648-0.07c0.779,0,1.917,0.119,2.836,0.998
		c0.428,0.408,0.957,1.228,0.957,2.495C155.427,44.275,155.228,45.184,154.589,45.732z"/>
	<path fill="#17CC87" d="M163.304,45.313c-0.07,0-0.09,0.04-0.109,0.15c-0.07,0.409-0.19,0.619-0.45,0.738s-0.679,0.119-0.938,0.119
		c-1.018,0-1.178-0.148-1.197-0.838c-0.01-0.289,0-1.207,0-1.547v-0.789c0-0.06,0.01-0.1,0.06-0.1c0.239,0,1.228,0.01,1.417,0.03
		c0.369,0.04,0.51,0.19,0.559,0.39c0.031,0.129,0.031,0.26,0.041,0.359c0,0.05,0.02,0.09,0.09,0.09c0.09,0,0.09-0.11,0.09-0.189
		c0-0.07,0.029-0.471,0.04-0.67c0.039-0.508,0.079-0.668,0.079-0.728c0-0.061-0.029-0.08-0.07-0.08c-0.049,0-0.09,0.05-0.159,0.13
		c-0.089,0.1-0.239,0.129-0.479,0.149c-0.229,0.021-1.377,0.021-1.597,0.021c-0.06,0-0.069-0.041-0.069-0.11v-2.525
		c0-0.069,0.02-0.1,0.069-0.1c0.2,0,1.248,0.021,1.417,0.04c0.5,0.06,0.6,0.18,0.67,0.359c0.049,0.119,0.059,0.289,0.059,0.359
		c0,0.09,0.021,0.14,0.09,0.14c0.07,0,0.091-0.061,0.1-0.11c0.021-0.119,0.041-0.559,0.051-0.658c0.029-0.459,0.08-0.578,0.08-0.648
		c0-0.051-0.01-0.091-0.061-0.091c-0.05,0-0.109,0.03-0.16,0.04c-0.079,0.021-0.238,0.041-0.428,0.061
		c-0.189,0.01-2.176,0.01-2.496,0.01c-0.14,0-0.369-0.01-0.629-0.02c-0.249,0-0.539-0.01-0.809-0.01c-0.148,0-0.219,0.02-0.219,0.09
		c0,0.068,0.061,0.09,0.17,0.09c0.139,0,0.309,0.01,0.389,0.029c0.329,0.07,0.408,0.229,0.43,0.569
		c0.02,0.319,0.02,0.599,0.02,2.115v1.757c0,0.918,0,1.707-0.051,2.126c-0.039,0.29-0.09,0.509-0.289,0.549
		c-0.09,0.021-0.209,0.04-0.359,0.04c-0.119,0-0.158,0.029-0.158,0.08c0,0.069,0.068,0.1,0.199,0.1c0.199,0,0.459-0.02,0.688-0.02
		c0.24-0.011,0.459-0.011,0.57-0.011c0.299,0,0.607,0.011,1.037,0.03c0.43,0.01,0.979,0.03,1.727,0.03c0.379,0,0.469,0,0.539-0.261
		c0.051-0.199,0.13-0.878,0.13-1.107C163.383,45.393,163.383,45.313,163.304,45.313z"/>
</g>
</svg>
