<svg version="1" xmlns="http://www.w3.org/2000/svg" width="933.333" height="933.333" viewBox="0 0 700.000000 700.000000"><path d="M20.5 21.2c-.3.7-.4 148.9-.3 329.3l.3 328h659v-658l-329.3-.3c-262.9-.2-329.4 0-329.7 1zm509.7 251.2c25.4 4.2 46 10.6 66.8 21.1 10.3 5.1 29.1 17.2 35.4 22.7l3.9 3.4-22.8 31.7c-12.5 17.4-23 31.7-23.4 31.7-.4 0-5.8-3.4-12.1-7.6-27.5-18.2-56.5-28.3-85.7-30-31.3-1.7-51.3 10.8-51.3 32.1.1 19.2 12.1 26.9 59.8 38 37.2 8.6 41.7 9.8 55.8 14.1 63.3 19.5 89.4 48 89.4 97.8 0 42.4-18 75.3-52.6 96.3-51.4 31.2-142 29.5-208.8-3.9-18.6-9.3-36-20.7-47.5-31.1l-4.2-3.7 25.2-30c13.8-16.5 25.5-30 26-30s4.1 2.5 8 5.5c22.5 17.4 52.2 31.2 78.7 36.6 14.4 3 40.2 3.7 51.2 1.5 20.7-4.2 33-15.9 33-31.4 0-7.9-1.8-12.3-6.9-17.3-8-7.7-19.8-11.7-74.1-24.9-52.6-12.7-80.6-24.9-99.2-43.4-17.3-17.2-24.8-36.7-24.9-65.1-.3-61.1 40.6-104 109.6-115 12.2-1.9 56.9-1.4 70.7.9z"/></svg>