<svg xmlns="http://www.w3.org/2000/svg" viewBox="0 0 394.95 117.49"><defs><style>.cls-1,.cls-2{fill:#fff;stroke:#1d1d1b;stroke-miterlimit:10;stroke-width:0.1px;}.cls-2{fill-rule:evenodd;}</style></defs><g id="Camada_2" data-name="Camada 2"><g id="Camada_1-2" data-name="Camada 1"><path class="cls-1" d="M12.87,1.91A14.58,14.58,0,0,0,6.15,3.48,11.53,11.53,0,0,0,1.69,7.72a12,12,0,0,0-.06,12A11.53,11.53,0,0,0,6,24a13.69,13.69,0,0,0,6.65,1.63A14.68,14.68,0,0,0,19.61,24a11.49,11.49,0,0,0,4.46-4.22,11.31,11.31,0,0,0,1.61-5.9A12.6,12.6,0,0,0,24,7.72a11.36,11.36,0,0,0-4.4-4.24,14.45,14.45,0,0,0-6.74-1.57"/><path class="cls-1" d="M39.61,112.45l.11-16.19c-8.24,3.17-15.61.86-16-7.33l-.18-51.39H1.46V93.42c0,20.82,16.87,24.33,38.15,19"/><path class="cls-1" d="M50,113.54h23.2V68.75a22.12,22.12,0,0,1,.24-3.28,12.41,12.41,0,0,1,.7-2.81c6.21-15.8,25.33-12.1,25.33,8v42.92h22.86V68.44c0-6-.15-11.92-1.67-16.08C117.1,42.75,110.11,36.05,98,36.05A27.66,27.66,0,0,0,90,37a28.78,28.78,0,0,0-7,3.1c-5.58,3.52-6.54,5.31-9.85,9.46l-.27-12.06H50Z"/><path class="cls-1" d="M169.86,113.54v-59h16.81v-17h-17V33.63c0-14.05,7-19.62,19.66-14.7L189.4,2a38.11,38.11,0,0,0-5.28-1.3C164.77-2.86,148,7.89,148,28.27v9.27H134.53v17H148v59Z"/><path class="cls-1" d="M286,110.48c14.41,6.72,42.37,6.33,52.92-7A19.3,19.3,0,0,0,343,91.09c-.07-12.65-6.92-19.23-21.06-23.51-3.68-1.11-6.76-2-8.88-3.27-8.56-5-4.34-12.27,2.8-13.14,7.9-1,16.24,2,23.09,5.63l.17-17.34c-2.62-1.28-3.43-1.46-7.42-2.31a64.68,64.68,0,0,0-13.3-1.33,48.45,48.45,0,0,0-13.65,1.82,32.85,32.85,0,0,0-10.38,5,22.71,22.71,0,0,0-6.58,7.55C283.22,58.79,286,71.67,294.41,77a44.59,44.59,0,0,0,13.77,6c9,2.15,13.56,6.26,13,10-.44,2.93-3.91,5.75-12.4,6a36.14,36.14,0,0,1-8.17-.85A61.28,61.28,0,0,1,292.74,96a41.59,41.59,0,0,1-6.48-3.21Z"/><path class="cls-1" d="M368,1.91a14.57,14.57,0,0,0-6.71,1.57,11.53,11.53,0,0,0-4.46,4.24,12,12,0,0,0-.06,12A11.57,11.57,0,0,0,361.2,24a13.76,13.76,0,0,0,6.66,1.63A14.68,14.68,0,0,0,374.79,24a11.35,11.35,0,0,0,6.07-10.12,12.6,12.6,0,0,0-1.67-6.12,11.36,11.36,0,0,0-4.4-4.24A14.47,14.47,0,0,0,368,1.91"/><path class="cls-1" d="M394.79,112.45l.11-16.19c-8.24,3.17-15.61.86-16-7.33l-.18-51.39H356.64V93.42c0,20.82,16.87,24.33,38.15,19"/><path class="cls-2" d="M201.45,58.4a8.1,8.1,0,1,1-8.09,8.1,8.1,8.1,0,0,1,8.09-8.1"/><path class="cls-2" d="M212.12,40.88a7.53,7.53,0,1,1-7.52,7.53,7.53,7.53,0,0,1,7.52-7.53"/><path class="cls-2" d="M227.55,33.64A6.58,6.58,0,1,1,221,40.22a6.58,6.58,0,0,1,6.57-6.58"/><path class="cls-2" d="M242.6,33.83A5.62,5.62,0,1,1,237,39.45a5.62,5.62,0,0,1,5.62-5.62"/><path class="cls-2" d="M254.6,39.16a5,5,0,1,1-5,5.05,5,5,0,0,1,5-5.05"/><path class="cls-2" d="M263.55,47.92a4.29,4.29,0,1,1-4.28,4.29,4.29,4.29,0,0,1,4.28-4.29"/><path class="cls-2" d="M268.89,58a3.52,3.52,0,1,1-3.53,3.52A3.53,3.53,0,0,1,268.89,58"/><path class="cls-2" d="M270.61,67.73a3,3,0,1,1-3,3,3,3,0,0,1,3-3"/><path class="cls-2" d="M268.7,91.55a8.1,8.1,0,1,1,8.1-8.1,8.1,8.1,0,0,1-8.1,8.1"/><path class="cls-2" d="M260.7,106.41a7.53,7.53,0,1,1,7.53-7.53,7.53,7.53,0,0,1-7.53,7.53"/><path class="cls-2" d="M235.56,117.44a6.19,6.19,0,1,1,6.18-6.18,6.19,6.19,0,0,1-6.18,6.18"/><path class="cls-2" d="M223.18,114.59a5.24,5.24,0,1,1,5.23-5.24,5.24,5.24,0,0,1-5.23,5.24"/><path class="cls-2" d="M213.08,108.69a4.66,4.66,0,1,1,4.66-4.66,4.66,4.66,0,0,1-4.66,4.66"/><path class="cls-2" d="M205.65,100.69a3.9,3.9,0,1,1,3.9-3.9,3.91,3.91,0,0,1-3.9,3.9"/><path class="cls-2" d="M201.08,91.55a3.33,3.33,0,1,1,3.33-3.33,3.33,3.33,0,0,1-3.33,3.33"/><path class="cls-2" d="M199.26,81.65A2.67,2.67,0,1,1,201.93,79a2.67,2.67,0,0,1-2.67,2.67"/><path class="cls-2" d="M248.89,114.77a6.57,6.57,0,1,1,6.57-6.56,6.56,6.56,0,0,1-6.57,6.56"/><path class="cls-2" d="M240.6,99.55a4.76,4.76,0,1,1,4.76-4.76,4.76,4.76,0,0,1-4.76,4.76"/><path class="cls-2" d="M230.51,99.73a4.19,4.19,0,1,1,4.19-4.18,4.19,4.19,0,0,1-4.19,4.18"/><path class="cls-2" d="M222.6,95.74A3.72,3.72,0,1,1,226.32,92a3.71,3.71,0,0,1-3.72,3.71"/><path class="cls-2" d="M216.89,89.65a3.53,3.53,0,1,1,3.52-3.53,3.53,3.53,0,0,1-3.52,3.53"/><path class="cls-2" d="M214.12,82.6a3,3,0,1,1,3-3,3,3,0,0,1-3,3"/><path class="cls-2" d="M213.84,75.55a2.76,2.76,0,1,1,2.76-2.76,2.76,2.76,0,0,1-2.76,2.76"/><path class="cls-2" d="M215.55,69.07a2.38,2.38,0,1,1,2.38-2.38,2.38,2.38,0,0,1-2.38,2.38"/><path class="cls-2" d="M219,63.93a2,2,0,1,1,2-2,2,2,0,0,1-2,2"/><path class="cls-2" d="M222.51,59.74A1.52,1.52,0,1,1,224,58.22a1.52,1.52,0,0,1-1.52,1.52"/><path class="cls-2" d="M230,60.6a4.76,4.76,0,1,1,4.76-4.76A4.76,4.76,0,0,1,230,60.6"/><path class="cls-2" d="M241.94,59.79A4.09,4.09,0,1,1,246,55.7a4.09,4.09,0,0,1-4.09,4.09"/><path class="cls-2" d="M251,64.5a3.74,3.74,0,1,1,3.73-3.73A3.74,3.74,0,0,1,251,64.5"/><path class="cls-2" d="M255.44,71.83a3.4,3.4,0,1,1,3.4-3.4,3.4,3.4,0,0,1-3.4,3.4"/><path class="cls-2" d="M256.87,79a2.93,2.93,0,1,1,2.92-2.93A2.93,2.93,0,0,1,256.87,79"/><path class="cls-2" d="M254.84,85.69a2.52,2.52,0,1,1,2.53-2.52,2.52,2.52,0,0,1-2.53,2.52"/><path class="cls-2" d="M252,90.17a1.93,1.93,0,1,1,1.93-1.93A1.92,1.92,0,0,1,252,90.17"/><path class="cls-2" d="M247.68,93.88a1.64,1.64,0,1,1,1.63-1.64,1.63,1.63,0,0,1-1.63,1.64"/><path class="cls-2" d="M237.2,86.6a2.07,2.07,0,1,1,2.07-2.07,2.07,2.07,0,0,1-2.07,2.07"/><path class="cls-2" d="M231.75,86.47a1.88,1.88,0,1,1,1.88-1.88,1.88,1.88,0,0,1-1.88,1.88"/><path class="cls-2" d="M227.74,83.59a1.76,1.76,0,1,1,1.76-1.76,1.76,1.76,0,0,1-1.76,1.76"/><path class="cls-2" d="M225.55,80.33a1.57,1.57,0,1,1,1.57-1.57,1.56,1.56,0,0,1-1.57,1.57"/><path class="cls-2" d="M224.93,76.07a1.32,1.32,0,1,1,1.31-1.32,1.32,1.32,0,0,1-1.31,1.32"/><path class="cls-2" d="M225.68,72.81a1.19,1.19,0,1,1,1.19-1.19,1.19,1.19,0,0,1-1.19,1.19"/><path class="cls-2" d="M227.12,69.93a.88.88,0,1,1,.88-.88.88.88,0,0,1-.88.88"/><path class="cls-2" d="M229,68.05a.63.63,0,1,1,.63-.63.63.63,0,0,1-.63.63"/><path class="cls-2" d="M232.4,64a2.07,2.07,0,1,1-2.07,2.06A2.07,2.07,0,0,1,232.4,64"/><path class="cls-2" d="M237.08,63.92a1.88,1.88,0,1,1-1.88,1.88,1.88,1.88,0,0,1,1.88-1.88"/><path class="cls-2" d="M241.23,65.79a1.76,1.76,0,1,1-1.75,1.76,1.76,1.76,0,0,1,1.75-1.76"/><path class="cls-2" d="M243.67,68.61a1.57,1.57,0,1,1-1.57,1.57,1.57,1.57,0,0,1,1.57-1.57"/><path class="cls-2" d="M244.82,72a1.32,1.32,0,1,1-1.31,1.31A1.31,1.31,0,0,1,244.82,72"/><path class="cls-2" d="M245.09,75.26a1.19,1.19,0,1,1-1.19,1.19,1.19,1.19,0,0,1,1.19-1.19"/><path class="cls-2" d="M242.78,80.71a.88.88,0,1,1-.88.87.87.87,0,0,1,.88-.87"/><path class="cls-2" d="M240.9,82.59a.63.63,0,1,1-.63.62.63.63,0,0,1,.63-.62"/><path class="cls-2" d="M244.29,78.46a1.07,1.07,0,0,1,0,2.13,1.07,1.07,0,1,1,0-2.13"/><path class="cls-1" d="M272.31,79.58h-.49V77.31a1.59,1.59,0,0,1-.65.45v-.54a1.53,1.53,0,0,0,.43-.3,1.2,1.2,0,0,0,.31-.5h.4Zm-2.44-2.66c-.09,0-.17.07-.23.19a2.82,2.82,0,0,0-.09.92,2.71,2.71,0,0,0,.09.91c.06.13.14.2.23.2s.18-.07.24-.2a3.2,3.2,0,0,0,.08-.91,3.29,3.29,0,0,0-.08-.92C270.05,77,270,76.92,269.87,76.92Zm0-.5a.7.7,0,0,1,.61.36,2.38,2.38,0,0,1,.23,1.25,2.4,2.4,0,0,1-.23,1.25.69.69,0,0,1-.6.36.69.69,0,0,1-.61-.36,3.51,3.51,0,0,1,0-2.5A.68.68,0,0,1,269.87,76.42Zm-2,.5c-.1,0-.18.07-.24.19a3.29,3.29,0,0,0-.08.92,3.15,3.15,0,0,0,.08.91c.06.13.14.2.24.2s.17-.07.23-.2a2.75,2.75,0,0,0,.09-.91,2.82,2.82,0,0,0-.09-.92C268,77,268,76.92,267.87,76.92Zm0-.5a.68.68,0,0,1,.6.36,2.36,2.36,0,0,1,.24,1.25,2.38,2.38,0,0,1-.24,1.25.68.68,0,0,1-.6.36.71.71,0,0,1-.61-.36,3.51,3.51,0,0,1,0-2.5A.71.71,0,0,1,267.87,76.42Zm-1.58,3.16h-.49V77.31a1.63,1.63,0,0,1-.64.45v-.54a1.5,1.5,0,0,0,.42-.3,1.2,1.2,0,0,0,.31-.5h.4Zm7-2.8c.14.09.27.19.4.29l0,0a2.82,2.82,0,0,0-.09.92,2.71,2.71,0,0,0,.09.91c.06.13.14.2.24.2s.17-.07.23-.2a2.75,2.75,0,0,0,.09-.91c0-.21,0-.39,0-.53.19.17.36.35.54.54a2.44,2.44,0,0,1-.24,1.24.68.68,0,0,1-.6.36.7.7,0,0,1-.61-.36,3.51,3.51,0,0,1,0-2.5Zm-8.93-.15a.58.58,0,0,1,.11.15,2.38,2.38,0,0,1,.23,1.25,2.4,2.4,0,0,1-.23,1.25.68.68,0,0,1-.6.36.7.7,0,0,1-.61-.36A2.37,2.37,0,0,1,263,78c0-.12,0-.23,0-.34a6.91,6.91,0,0,1,.57-.51,3.82,3.82,0,0,0-.07.86,2.71,2.71,0,0,0,.09.91c.06.13.14.2.23.2s.18-.07.24-.2a2.85,2.85,0,0,0,.08-.91,2.93,2.93,0,0,0-.08-.92.31.31,0,0,0-.18-.18Z"/><path class="cls-1" d="M274.74,81.55c-.1,0-.18.07-.23.2a4.65,4.65,0,0,0,0,1.82c.05.13.13.2.23.2s.18-.07.23-.2a2.75,2.75,0,0,0,.09-.91,2.71,2.71,0,0,0-.09-.91c-.05-.13-.13-.2-.23-.2m0-.5a.71.71,0,0,1,.61.36,2.48,2.48,0,0,1,.23,1.25,2.51,2.51,0,0,1-.23,1.25.7.7,0,0,1-1.22,0,3.51,3.51,0,0,1,0-2.5A.71.71,0,0,1,274.74,81.05Zm-2,.5c-.09,0-.17.07-.23.2a4.65,4.65,0,0,0,0,1.82c.06.13.14.2.23.2s.18-.07.24-.2a3.2,3.2,0,0,0,.08-.91,3.15,3.15,0,0,0-.08-.91C272.91,81.62,272.83,81.55,272.73,81.55Zm0-.5a.7.7,0,0,1,.61.36,2.38,2.38,0,0,1,.23,1.25,2.4,2.4,0,0,1-.23,1.25.69.69,0,0,1-.6.36.69.69,0,0,1-.61-.36,3.51,3.51,0,0,1,0-2.5A.68.68,0,0,1,272.73,81.05Zm-1.57,3.16h-.5V81.94a1.69,1.69,0,0,1-.64.46v-.55a1.53,1.53,0,0,0,.43-.3,1.2,1.2,0,0,0,.31-.5h.4Zm-2.44-2.66c-.1,0-.17.07-.23.2a4.65,4.65,0,0,0,0,1.82c.06.13.13.2.23.2s.18-.07.24-.2a3.2,3.2,0,0,0,.08-.91,3.15,3.15,0,0,0-.08-.91C268.9,81.62,268.82,81.55,268.72,81.55Zm0-.5a.71.71,0,0,1,.61.36,2.48,2.48,0,0,1,.23,1.25,2.51,2.51,0,0,1-.23,1.25.7.7,0,0,1-1.22,0,3.51,3.51,0,0,1,0-2.5A.71.71,0,0,1,268.72,81.05Zm-2,.5c-.09,0-.17.07-.23.2a4.65,4.65,0,0,0,0,1.82c.06.13.14.2.23.2s.18-.07.24-.2a2.85,2.85,0,0,0,.08-.91,2.81,2.81,0,0,0-.08-.91C266.89,81.62,266.81,81.55,266.71,81.55Zm0-.5a.69.69,0,0,1,.61.36,2.38,2.38,0,0,1,.23,1.25,2.4,2.4,0,0,1-.23,1.25.68.68,0,0,1-.6.36.7.7,0,0,1-.61-.36,3.51,3.51,0,0,1,0-2.5A.69.69,0,0,1,266.71,81.05Zm-1.57,3.16h-.5V81.94a1.61,1.61,0,0,1-.64.46v-.55a1.53,1.53,0,0,0,.43-.3,1.2,1.2,0,0,0,.31-.5h.4Zm-1.81,0h-.49V81.94a1.77,1.77,0,0,1-.64.46v-.55a1.5,1.5,0,0,0,.42-.3,1.2,1.2,0,0,0,.31-.5h.4Zm13.35-2.14a7.87,7.87,0,0,1,.12,1.38,6.34,6.34,0,0,1,0,.76h-.08Zm-.13-.61c0,.16.08.33.11.5a1.76,1.76,0,0,1-.62.44v-.55a1.53,1.53,0,0,0,.43-.3ZM261,81.05a.71.71,0,0,1,.53.36,2.38,2.38,0,0,1,.23,1.25,2.4,2.4,0,0,1-.23,1.25.68.68,0,0,1-.6.36.66.66,0,0,1-.25,0,6.51,6.51,0,0,1,0-.77v-.08a.64.64,0,0,0,.05.2c.06.13.14.2.23.2s.18-.07.24-.2a2.85,2.85,0,0,0,.08-.91,2.81,2.81,0,0,0-.08-.91c-.06-.13-.14-.2-.24-.2h-.06C260.87,81.39,260.92,81.22,261,81.05Z"/><path class="cls-1" d="M273.62,89.13h-.49V86.85a1.77,1.77,0,0,1-.64.46v-.55a1.21,1.21,0,0,0,.43-.3,1.14,1.14,0,0,0,.3-.49h.4Zm-2.43-2.66c-.1,0-.18.06-.24.19a3.2,3.2,0,0,0-.08.91,3.24,3.24,0,0,0,.08.92c.06.13.14.19.24.19s.17-.06.23-.19a2.82,2.82,0,0,0,.09-.92,2.75,2.75,0,0,0-.09-.91C271.36,86.53,271.29,86.47,271.19,86.47Zm0-.5a.69.69,0,0,1,.6.35,2.38,2.38,0,0,1,.24,1.25,2.33,2.33,0,0,1-.24,1.25.68.68,0,0,1-.6.36.72.72,0,0,1-.61-.35,3.54,3.54,0,0,1,0-2.51A.72.72,0,0,1,271.19,86Zm-1.58,3.16h-.49V86.85a1.77,1.77,0,0,1-.64.46v-.55a1.43,1.43,0,0,0,.73-.79h.4Zm-2.43-2.66c-.1,0-.18.06-.24.19a2.75,2.75,0,0,0-.09.91,2.78,2.78,0,0,0,.09.92c.06.13.14.19.24.19s.17-.06.23-.19a2.93,2.93,0,0,0,.08-.92,2.85,2.85,0,0,0-.08-.91C267.35,86.53,267.27,86.47,267.18,86.47Zm0-.5a.69.69,0,0,1,.6.35,2.4,2.4,0,0,1,.23,1.25,2.35,2.35,0,0,1-.23,1.25.68.68,0,0,1-.6.36.71.71,0,0,1-.61-.35,3.54,3.54,0,0,1,0-2.51A.71.71,0,0,1,267.18,86Zm-1.58,3.16h-.5V86.85a1.61,1.61,0,0,1-.64.46v-.55a1.21,1.21,0,0,0,.43-.3,1.17,1.17,0,0,0,.31-.49h.4Zm-2.44-2.66c-.09,0-.17.06-.23.19a2.75,2.75,0,0,0-.09.91,2.78,2.78,0,0,0,.09.92c.06.13.14.19.23.19s.18-.06.24-.19a3.29,3.29,0,0,0,.08-.92,3.2,3.2,0,0,0-.08-.91C263.34,86.53,263.26,86.47,263.16,86.47ZM276,87a7.37,7.37,0,0,1-.48.87v-.26a2.75,2.75,0,0,0-.09-.91.23.23,0,0,0-.46,0,2.75,2.75,0,0,0-.09.91,2.78,2.78,0,0,0,.09.92l0,.06-.33.38-.08-.1a3.54,3.54,0,0,1,0-2.51.71.71,0,0,1,1.22,0A1.57,1.57,0,0,1,276,87Zm-12.84-1a.71.71,0,0,1,.61.35,2.4,2.4,0,0,1,.23,1.25,2.35,2.35,0,0,1-.23,1.25.7.7,0,0,1-.61.36.76.76,0,0,1-.21,0c-.18-.18-.34-.37-.5-.56a3.12,3.12,0,0,1-.13-1,2.38,2.38,0,0,1,.24-1.25A.69.69,0,0,1,263.16,86Z"/><path class="cls-1" d="M271.53,91l-.47.16h0c-.05-.13-.13-.2-.23-.2s-.18.07-.23.2a.39.39,0,0,0,0,.14l-.53.1a1.52,1.52,0,0,1,.19-.58.7.7,0,0,1,1.22,0,1.5,1.5,0,0,1,.09.18m-3,.51-.5,0a1.47,1.47,0,0,1,.2-.66.68.68,0,0,1,.6-.36.7.7,0,0,1,.61.36,1.56,1.56,0,0,1,.2.64l-.51,0a1,1,0,0,0-.06-.34c-.06-.13-.14-.2-.24-.2s-.17.07-.23.2A1.29,1.29,0,0,0,268.52,91.55Zm-2.21-.36a1.92,1.92,0,0,0,.23-.19,1.2,1.2,0,0,0,.31-.5h.4v.92C266.93,91.36,266.62,91.28,266.31,91.19Z"/><path class="cls-1" d="M264.05,95.28h-.46V93.17a1.6,1.6,0,0,1-.59.42v-.51a1.28,1.28,0,0,0,.4-.27,1.14,1.14,0,0,0,.28-.47h.37Zm-2.26-2.47c-.09,0-.16.06-.22.18a4.56,4.56,0,0,0,0,1.7c.06.12.13.18.22.18s.16-.06.22-.18a2.83,2.83,0,0,0,.08-.85A2.78,2.78,0,0,0,262,93C262,92.87,261.88,92.81,261.79,92.81Zm0-.47a.66.66,0,0,1,.57.34,3.31,3.31,0,0,1,0,2.32.67.67,0,0,1-.57.33.64.64,0,0,1-.56-.33,2.21,2.21,0,0,1-.22-1.17,2.15,2.15,0,0,1,.22-1.15A.63.63,0,0,1,261.79,92.34Zm-1.87.47q-.14,0-.21.18a4.56,4.56,0,0,0,0,1.7q.07.18.21.18c.1,0,.17-.06.22-.18a2.52,2.52,0,0,0,.08-.85,2.48,2.48,0,0,0-.08-.85C260.09,92.87,260,92.81,259.92,92.81Zm0-.47a.64.64,0,0,1,.57.34,3.17,3.17,0,0,1,0,2.32.65.65,0,0,1-1.13,0,2.33,2.33,0,0,1-.21-1.17,2.27,2.27,0,0,1,.21-1.15A.63.63,0,0,1,259.92,92.34Zm-1.46,2.94H258V93.17a1.56,1.56,0,0,1-.6.42v-.51a1.28,1.28,0,0,0,.4-.27,1.16,1.16,0,0,0,.29-.47h.37Zm6.5-2.61.37.27,0,0a4.56,4.56,0,0,0,0,1.7c.06.12.13.18.22.18s.16-.06.22-.18a2.83,2.83,0,0,0,.08-.85c0-.2,0-.36,0-.49.18.16.34.33.5.5a2.15,2.15,0,0,1-.22,1.15A.64.64,0,0,1,265,95a2.21,2.21,0,0,1-.22-1.17,2.15,2.15,0,0,1,.22-1.15Zm-8.31-.13a.53.53,0,0,1,.11.14,3.31,3.31,0,0,1,0,2.32.65.65,0,0,1-1.13,0,2.33,2.33,0,0,1-.21-1.17v-.31A6.17,6.17,0,0,1,256,93a3.48,3.48,0,0,0-.06.8,2.48,2.48,0,0,0,.08.85q.07.18.21.18c.1,0,.17-.06.22-.18a2.83,2.83,0,0,0,.08-.85,2.78,2.78,0,0,0-.08-.85.25.25,0,0,0-.16-.17Z"/><path class="cls-1" d="M266.31,97.11q-.13,0-.21.18a2.52,2.52,0,0,0-.08.85,2.48,2.48,0,0,0,.08.85q.07.18.21.18c.1,0,.17-.06.22-.18a2.78,2.78,0,0,0,.08-.85,2.83,2.83,0,0,0-.08-.85c0-.12-.12-.18-.22-.18m0-.46a.65.65,0,0,1,.57.33,2.31,2.31,0,0,1,.21,1.16,2.29,2.29,0,0,1-.21,1.16.63.63,0,0,1-.56.34.65.65,0,0,1-.57-.33,3.34,3.34,0,0,1,0-2.33A.64.64,0,0,1,266.31,96.65Zm-1.86.46c-.09,0-.16.06-.22.18a2.83,2.83,0,0,0-.08.85,2.78,2.78,0,0,0,.08.85c.06.12.13.18.22.18s.16-.06.22-.18a2.78,2.78,0,0,0,.08-.85,2.83,2.83,0,0,0-.08-.85C264.61,97.17,264.54,97.11,264.45,97.11Zm0-.46A.64.64,0,0,1,265,97a2.19,2.19,0,0,1,.22,1.16A2.16,2.16,0,0,1,265,99.3a.63.63,0,0,1-.56.34.64.64,0,0,1-.56-.33,3.19,3.19,0,0,1,0-2.33A.64.64,0,0,1,264.45,96.65ZM263,99.59h-.46V97.47a1.52,1.52,0,0,1-.59.43v-.51a1.33,1.33,0,0,0,.4-.28,1.1,1.1,0,0,0,.28-.46H263Zm-2.26-2.48c-.09,0-.16.06-.22.18a2.83,2.83,0,0,0-.08.85,2.78,2.78,0,0,0,.08.85c.06.12.13.18.22.18s.16-.06.22-.18a2.78,2.78,0,0,0,.08-.85,2.83,2.83,0,0,0-.08-.85C260.88,97.17,260.81,97.11,260.72,97.11Zm0-.46a.64.64,0,0,1,.56.33,2.19,2.19,0,0,1,.22,1.16,2.16,2.16,0,0,1-.22,1.16.63.63,0,0,1-.56.34.64.64,0,0,1-.56-.33,3.19,3.19,0,0,1,0-2.33A.64.64,0,0,1,260.72,96.65Zm-1.87.46q-.14,0-.21.18a2.52,2.52,0,0,0-.08.85,2.48,2.48,0,0,0,.08.85q.08.18.21.18c.1,0,.17-.06.22-.18a2.78,2.78,0,0,0,.08-.85,2.83,2.83,0,0,0-.08-.85C259,97.17,259,97.11,258.85,97.11Zm0-.46a.66.66,0,0,1,.57.33,2.31,2.31,0,0,1,.21,1.16,2.29,2.29,0,0,1-.21,1.16.64.64,0,0,1-1.13,0,3.19,3.19,0,0,1,0-2.33A.64.64,0,0,1,258.85,96.65Zm-1.46,2.94h-.46V97.47a1.48,1.48,0,0,1-.6.43v-.51a1.33,1.33,0,0,0,.4-.28,1.12,1.12,0,0,0,.29-.46h.37Zm-1.68,0h-.46V97.47a1.48,1.48,0,0,1-.6.43v-.51a1.33,1.33,0,0,0,.4-.28,1.12,1.12,0,0,0,.29-.46h.37Zm12.41-2a7.83,7.83,0,0,1,.11,1.29c0,.24,0,.48,0,.71h-.08ZM268,97c0,.15.07.31.1.46a1.54,1.54,0,0,1-.58.41v-.51a1.33,1.33,0,0,0,.4-.28Zm-14.49-.38a.67.67,0,0,1,.5.33,2.31,2.31,0,0,1,.21,1.16A2.29,2.29,0,0,1,254,99.3a.65.65,0,0,1-.57.34.85.85,0,0,1-.23,0q0-.36,0-.72V98.8a.56.56,0,0,0,0,.19q.08.18.21.18a.25.25,0,0,0,.22-.18,2.78,2.78,0,0,0,.08-.85,2.83,2.83,0,0,0-.08-.85.25.25,0,0,0-.22-.18h-.06C253.42,97,253.46,96.81,253.51,96.65Z"/><path class="cls-1" d="M265.28,104.16h-.46V102a1.48,1.48,0,0,1-.6.43V102a1.33,1.33,0,0,0,.4-.28,1,1,0,0,0,.28-.46h.38ZM263,101.68c-.09,0-.16.06-.22.18a2.83,2.83,0,0,0-.08.85,2.78,2.78,0,0,0,.08.85c.06.12.13.18.22.18a.25.25,0,0,0,.22-.18,2.78,2.78,0,0,0,.08-.85,2.83,2.83,0,0,0-.08-.85A.25.25,0,0,0,263,101.68Zm0-.46a.67.67,0,0,1,.57.33,2.31,2.31,0,0,1,.21,1.16,2.29,2.29,0,0,1-.21,1.16.66.66,0,0,1-.57.34.64.64,0,0,1-.56-.33,3.19,3.19,0,0,1,0-2.33A.64.64,0,0,1,263,101.22Zm-1.46,2.94h-.46V102a1.55,1.55,0,0,1-.6.43V102a1.33,1.33,0,0,0,.4-.28,1,1,0,0,0,.28-.46h.38Zm-2.27-2.48c-.09,0-.16.06-.22.18a2.83,2.83,0,0,0-.08.85,2.78,2.78,0,0,0,.08.85c.06.12.13.18.22.18a.25.25,0,0,0,.22-.18,2.78,2.78,0,0,0,.08-.85,2.83,2.83,0,0,0-.08-.85A.25.25,0,0,0,259.28,101.68Zm0-.46a.67.67,0,0,1,.57.33,2.31,2.31,0,0,1,.21,1.16,2.29,2.29,0,0,1-.21,1.16.66.66,0,0,1-.57.34.64.64,0,0,1-.56-.33,3.19,3.19,0,0,1,0-2.33A.64.64,0,0,1,259.28,101.22Zm-1.46,2.94h-.46V102a1.55,1.55,0,0,1-.6.43V102a1.33,1.33,0,0,0,.4-.28,1,1,0,0,0,.28-.46h.38Zm-2.27-2.48c-.09,0-.16.06-.22.18a2.83,2.83,0,0,0-.08.85,2.78,2.78,0,0,0,.08.85c.06.12.13.18.22.18s.16-.06.22-.18a2.78,2.78,0,0,0,.08-.85,2.83,2.83,0,0,0-.08-.85C255.71,101.74,255.64,101.68,255.55,101.68Zm11.94.46q-.21.42-.45.81v-.24a2.83,2.83,0,0,0-.08-.85.25.25,0,0,0-.22-.18c-.09,0-.16.06-.22.18a2.83,2.83,0,0,0-.08.85,2.78,2.78,0,0,0,.08.85l0,.06-.3.35-.07-.09a3.19,3.19,0,0,1,0-2.33.64.64,0,0,1,.56-.33.67.67,0,0,1,.57.33A1.47,1.47,0,0,1,267.49,102.14Zm-11.94-.92a.67.67,0,0,1,.57.33,2.31,2.31,0,0,1,.21,1.16,2.29,2.29,0,0,1-.21,1.16.66.66,0,0,1-.57.34.69.69,0,0,1-.2,0c-.16-.17-.32-.34-.47-.52a3.38,3.38,0,0,1-.11-1,2.19,2.19,0,0,1,.22-1.16A.64.64,0,0,1,255.55,101.22Z"/><path class="cls-1" d="M263.33,105.94l-.43.14h0c-.06-.12-.13-.18-.22-.18s-.16.06-.22.18,0,.08,0,.13l-.48.1a1.27,1.27,0,0,1,.17-.54.68.68,0,0,1,.57-.34.65.65,0,0,1,.56.34.68.68,0,0,1,.09.17m-2.8.47-.47,0a1.57,1.57,0,0,1,.19-.61.64.64,0,0,1,1.13,0,1.33,1.33,0,0,1,.18.59l-.47,0a1,1,0,0,0-.06-.32.25.25,0,0,0-.22-.18q-.13,0-.21.18A1.19,1.19,0,0,0,260.53,106.41Zm-2-.34a1,1,0,0,0,.21-.17,1.16,1.16,0,0,0,.29-.47h.37v.86A7.9,7.9,0,0,1,258.48,106.07Z"/><path class="cls-1" d="M251.81,105.07h-.4v-1.85a1.25,1.25,0,0,1-.52.37v-.44a1.22,1.22,0,0,0,.35-.24,1,1,0,0,0,.25-.41h.32Zm-2-2.16c-.08,0-.14,0-.19.16a3.95,3.95,0,0,0,0,1.48c0,.1.11.16.19.16s.14-.06.19-.16a2.25,2.25,0,0,0,.07-.74,2.21,2.21,0,0,0-.07-.74C250,103,249.92,102.91,249.84,102.91Zm0-.41a.57.57,0,0,1,.49.29,2,2,0,0,1,.19,1,1.91,1.91,0,0,1-.19,1,.56.56,0,0,1-1,0,2.81,2.81,0,0,1,0-2A.57.57,0,0,1,249.84,102.5Zm-1.63.41c-.08,0-.14,0-.19.16a3.95,3.95,0,0,0,0,1.48c0,.1.11.16.19.16s.14-.06.19-.16a2.25,2.25,0,0,0,.07-.74,2.21,2.21,0,0,0-.07-.74C248.35,103,248.29,102.91,248.21,102.91Zm0-.41a.57.57,0,0,1,.49.29,2,2,0,0,1,.19,1,1.91,1.91,0,0,1-.19,1,.54.54,0,0,1-.49.29.56.56,0,0,1-.49-.29,2.81,2.81,0,0,1,0-2A.58.58,0,0,1,248.21,102.5Zm-1.28,2.57h-.4v-1.85a1.25,1.25,0,0,1-.52.37v-.44a1.37,1.37,0,0,0,.35-.24,1,1,0,0,0,.25-.41h.32Zm5.67-2.28.32.24s0,0,0,0a3.95,3.95,0,0,0,0,1.48c0,.1.11.16.19.16a.22.22,0,0,0,.19-.16,2.25,2.25,0,0,0,.07-.74c0-.17,0-.31,0-.43a5.93,5.93,0,0,1,.43.44,2,2,0,0,1-.18,1,.57.57,0,0,1-1,0,2.81,2.81,0,0,1,0-2Zm-7.24-.12.09.12a2,2,0,0,1,.19,1,1.91,1.91,0,0,1-.19,1,.56.56,0,0,1-.49.29.55.55,0,0,1-.49-.29,1.93,1.93,0,0,1-.19-1,2.35,2.35,0,0,1,0-.27,4.58,4.58,0,0,1,.46-.42,3.42,3.42,0,0,0-.05.7,2.21,2.21,0,0,0,.07.74c0,.1.11.16.19.16s.14-.06.19-.16a2.58,2.58,0,0,0,.07-.74,2.53,2.53,0,0,0-.07-.74c0-.09-.09-.14-.14-.15C245.12,102.83,245.24,102.75,245.36,102.67Z"/><path class="cls-1" d="M253.79,106.67a.21.21,0,0,0-.19.15,2.25,2.25,0,0,0-.07.74,2.33,2.33,0,0,0,.07.75.21.21,0,0,0,.19.15c.08,0,.14,0,.19-.15a2.67,2.67,0,0,0,.07-.75,2.58,2.58,0,0,0-.07-.74c0-.1-.11-.15-.19-.15m0-.41a.58.58,0,0,1,.49.29,2,2,0,0,1,.19,1,2.06,2.06,0,0,1-.19,1,.57.57,0,0,1-1,0,3,3,0,0,1,0-2A.58.58,0,0,1,253.79,106.26Zm-1.63.41c-.08,0-.14,0-.19.15a2.25,2.25,0,0,0-.07.74,2.33,2.33,0,0,0,.07.75c.05.1.11.15.19.15s.14,0,.19-.15a2.33,2.33,0,0,0,.07-.75,2.25,2.25,0,0,0-.07-.74C252.3,106.72,252.24,106.67,252.16,106.67Zm0-.41a.57.57,0,0,1,.49.29,1.91,1.91,0,0,1,.19,1,2,2,0,0,1-.19,1,.56.56,0,0,1-1,0,2.81,2.81,0,0,1,0-2A.57.57,0,0,1,252.16,106.26Zm-1.28,2.56h-.4V107a1.35,1.35,0,0,1-.52.37v-.44a1.21,1.21,0,0,0,.35-.25.94.94,0,0,0,.25-.4h.32Zm-2-2.15a.21.21,0,0,0-.18.15,2.25,2.25,0,0,0-.07.74,2.33,2.33,0,0,0,.07.75.19.19,0,0,0,.37,0,2.33,2.33,0,0,0,.07-.75,2.25,2.25,0,0,0-.07-.74A.21.21,0,0,0,248.9,106.67Zm0-.41a.58.58,0,0,1,.5.29,2,2,0,0,1,.19,1,2.06,2.06,0,0,1-.19,1,.57.57,0,0,1-1,0,2.81,2.81,0,0,1,0-2A.58.58,0,0,1,248.9,106.26Zm-1.62.41c-.08,0-.14,0-.19.15a2.25,2.25,0,0,0-.07.74,2.33,2.33,0,0,0,.07.75c0,.1.11.15.19.15s.14,0,.19-.15a2.67,2.67,0,0,0,.07-.75,2.58,2.58,0,0,0-.07-.74C247.42,106.72,247.36,106.67,247.28,106.67Zm0-.41a.57.57,0,0,1,.49.29,1.91,1.91,0,0,1,.19,1,2,2,0,0,1-.19,1,.56.56,0,0,1-1,0,2.81,2.81,0,0,1,0-2A.57.57,0,0,1,247.28,106.26ZM246,108.82h-.4V107a1.42,1.42,0,0,1-.52.37v-.44a1.21,1.21,0,0,0,.35-.25.83.83,0,0,0,.24-.4H246Zm-1.47,0h-.4V107a1.35,1.35,0,0,1-.52.37v-.44a1.21,1.21,0,0,0,.35-.25.94.94,0,0,0,.25-.4h.32Zm10.83-1.74a7,7,0,0,1,.1,1.13,6.08,6.08,0,0,1,0,.61h-.07Zm-.1-.49.09.41a1.46,1.46,0,0,1-.51.35v-.44a1.21,1.21,0,0,0,.35-.25A.46.46,0,0,0,255.26,106.59Zm-12.64-.33a.6.6,0,0,1,.43.29,1.91,1.91,0,0,1,.19,1,2,2,0,0,1-.19,1,.58.58,0,0,1-.49.29.52.52,0,0,1-.21,0c0-.2,0-.41,0-.62v-.07a.61.61,0,0,0,0,.17.21.21,0,0,0,.19.15c.08,0,.14,0,.19-.15a2.67,2.67,0,0,0,.07-.75,2.58,2.58,0,0,0-.07-.74c-.05-.1-.11-.15-.19-.15h-.05C242.54,106.53,242.58,106.4,242.62,106.26Z"/><path class="cls-1" d="M252.88,112.81h-.4V111a1.37,1.37,0,0,1-.52.38v-.45a1.1,1.1,0,0,0,.6-.64h.32Zm-2-2.16c-.07,0-.14,0-.18.16a3.95,3.95,0,0,0,0,1.48c0,.11.11.16.18.16a.21.21,0,0,0,.19-.16,3.95,3.95,0,0,0,0-1.48A.21.21,0,0,0,250.9,110.65Zm0-.4a.56.56,0,0,1,.5.29,2.78,2.78,0,0,1,0,2,.56.56,0,0,1-.49.29.57.57,0,0,1-.5-.28,2.1,2.1,0,0,1-.18-1,2,2,0,0,1,.18-1A.56.56,0,0,1,250.9,110.25Zm-1.27,2.56h-.4V111a1.45,1.45,0,0,1-.52.38v-.45a1,1,0,0,0,.34-.24.9.9,0,0,0,.25-.4h.33Zm-2-2.16c-.08,0-.14,0-.19.16a3.95,3.95,0,0,0,0,1.48c0,.11.11.16.19.16s.14,0,.19-.16a3.95,3.95,0,0,0,0-1.48C247.79,110.7,247.73,110.65,247.65,110.65Zm0-.4a.55.55,0,0,1,.49.29,2.78,2.78,0,0,1,0,2,.55.55,0,0,1-.49.29.56.56,0,0,1-.49-.28,2,2,0,0,1-.19-1,1.91,1.91,0,0,1,.19-1A.55.55,0,0,1,247.65,110.25Zm-1.28,2.56H246V111a1.37,1.37,0,0,1-.52.38v-.45a1.1,1.1,0,0,0,.6-.64h.32Zm-2-2.16a.21.21,0,0,0-.19.16,3.95,3.95,0,0,0,0,1.48.21.21,0,0,0,.19.16c.08,0,.14,0,.19-.16a3.95,3.95,0,0,0,0-1.48C244.54,110.7,244.48,110.65,244.4,110.65Zm10.41.4a8.06,8.06,0,0,1-.39.71v-.21a2.21,2.21,0,0,0-.07-.74c0-.11-.11-.16-.19-.16s-.14,0-.19.16a3.95,3.95,0,0,0,0,1.48s0,0,0,0l-.26.31-.06-.08a2,2,0,0,1-.19-1,1.91,1.91,0,0,1,.19-1,.56.56,0,0,1,1,0A1.18,1.18,0,0,1,254.81,111.05Zm-10.41-.8a.56.56,0,0,1,.49.29,2.78,2.78,0,0,1,0,2,.56.56,0,0,1-.49.29l-.17,0a6,6,0,0,1-.42-.46,3,3,0,0,1-.09-.82,2,2,0,0,1,.18-1A.56.56,0,0,1,244.4,110.25Z"/><path class="cls-1" d="M251.18,114.36l-.37.13h0a.21.21,0,0,0-.19-.16c-.07,0-.14,0-.18.16a.28.28,0,0,0,0,.11l-.42.09a1.18,1.18,0,0,1,.15-.47.56.56,0,0,1,1,0,.61.61,0,0,1,.07.14m-2.44.41-.41,0a1.27,1.27,0,0,1,.17-.53.56.56,0,0,1,.49-.3.57.57,0,0,1,.49.3,1.18,1.18,0,0,1,.16.51l-.41,0a1.09,1.09,0,0,0,0-.28c-.05-.11-.11-.16-.19-.16s-.14,0-.19.16A1,1,0,0,0,248.74,114.77Zm-1.79-.29.19-.15a.86.86,0,0,0,.24-.41h.33v.75A6.49,6.49,0,0,1,247,114.48Z"/><path class="cls-1" d="M238.31,108.3h-.38v-1.74a1.24,1.24,0,0,1-.48.35v-.42a1,1,0,0,0,.32-.23,1,1,0,0,0,.24-.38h.3Zm-1.86-2c-.07,0-.13,0-.18.14a4.11,4.11,0,0,0,0,1.4q.07.15.18.15t.18-.15a4.11,4.11,0,0,0,0-1.4A.19.19,0,0,0,236.45,106.27Zm0-.39a.51.51,0,0,1,.46.28,1.82,1.82,0,0,1,.18,1,1.86,1.86,0,0,1-.18,1,.52.52,0,0,1-.46.27.53.53,0,0,1-.46-.27,1.84,1.84,0,0,1-.18-1,1.8,1.8,0,0,1,.18-1A.52.52,0,0,1,236.45,105.88Zm-1.53.39a.19.19,0,0,0-.18.14,3.54,3.54,0,0,0,0,1.4q.06.15.18.15t.18-.15a4.11,4.11,0,0,0,0-1.4C235.05,106.31,235,106.27,234.92,106.27Zm0-.39a.52.52,0,0,1,.46.28,1.82,1.82,0,0,1,.18,1,1.86,1.86,0,0,1-.18,1,.53.53,0,0,1-.46.27.55.55,0,0,1-.47-.27,2,2,0,0,1-.17-1,1.92,1.92,0,0,1,.17-1A.54.54,0,0,1,234.92,105.88Zm-1.21,2.42h-.37v-1.74a1.35,1.35,0,0,1-.49.35v-.42a1,1,0,0,0,.32-.23,1,1,0,0,0,.24-.38h.3Zm5.34-2.15.31.23,0,0a3.53,3.53,0,0,0,0,1.4q.06.15.18.15t.18-.15a2.42,2.42,0,0,0,.06-.7c0-.16,0-.29,0-.4.14.13.28.27.41.41a1.82,1.82,0,0,1-.18.95.53.53,0,0,1-.46.27.55.55,0,0,1-.47-.27,1.86,1.86,0,0,1-.17-1,1.82,1.82,0,0,1,.17-1Zm-6.82-.11a1.25,1.25,0,0,1,.09.12,2,2,0,0,1,.17,1,2,2,0,0,1-.17,1,.55.55,0,0,1-.47.27.53.53,0,0,1-.46-.27,1.84,1.84,0,0,1-.18-1,2.17,2.17,0,0,1,0-.26c.14-.14.29-.27.44-.4a2.54,2.54,0,0,0,0,.66,2.42,2.42,0,0,0,.06.7q.08.15.18.15t.18-.15a3.54,3.54,0,0,0,0-1.4.23.23,0,0,0-.13-.14C232,106.19,232.11,106.12,232.23,106Z"/><path class="cls-1" d="M240.17,109.8c-.08,0-.13,0-.18.15a3.54,3.54,0,0,0,0,1.4c0,.1.1.15.18.15s.13,0,.18-.15a4.11,4.11,0,0,0,0-1.4q-.07-.15-.18-.15m0-.38a.52.52,0,0,1,.46.27,1.86,1.86,0,0,1,.18,1,1.89,1.89,0,0,1-.18,1,.53.53,0,0,1-.92,0,1.84,1.84,0,0,1-.18-1,1.86,1.86,0,0,1,.18-1A.52.52,0,0,1,240.17,109.42Zm-1.53.38q-.12,0-.18.15a3.54,3.54,0,0,0,0,1.4q.06.15.18.15t.18-.15a4.11,4.11,0,0,0,0-1.4Q238.75,109.8,238.64,109.8Zm0-.38a.53.53,0,0,1,.46.27,1.86,1.86,0,0,1,.18,1,1.89,1.89,0,0,1-.18,1,.53.53,0,0,1-.46.27.55.55,0,0,1-.47-.27,1.86,1.86,0,0,1-.17-1,1.88,1.88,0,0,1,.17-1A.55.55,0,0,1,238.64,109.42Zm-1.21,2.42h-.38V110.1a1.35,1.35,0,0,1-.48.35V110a1.1,1.1,0,0,0,.56-.61h.3Zm-1.86-2q-.1,0-.18.15a4.11,4.11,0,0,0,0,1.4q.08.15.18.15t.18-.15a4.11,4.11,0,0,0,0-1.4Q235.69,109.8,235.57,109.8Zm0-.38a.52.52,0,0,1,.46.27,1.86,1.86,0,0,1,.18,1,1.89,1.89,0,0,1-.18,1,.52.52,0,0,1-.46.27.53.53,0,0,1-.46-.27,1.84,1.84,0,0,1-.18-1,1.86,1.86,0,0,1,.18-1A.53.53,0,0,1,235.57,109.42Zm-1.53.38q-.12,0-.18.15a3.54,3.54,0,0,0,0,1.4q.06.15.18.15t.18-.15a4.11,4.11,0,0,0,0-1.4Q234.15,109.8,234,109.8Zm0-.38a.53.53,0,0,1,.46.27,1.86,1.86,0,0,1,.18,1,1.89,1.89,0,0,1-.18,1,.53.53,0,0,1-.46.27.55.55,0,0,1-.47-.27,2,2,0,0,1-.17-1,2,2,0,0,1,.17-1A.55.55,0,0,1,234,109.42Zm-1.21,2.42h-.37V110.1a1.48,1.48,0,0,1-.49.35V110a1,1,0,0,0,.32-.23.91.91,0,0,0,.24-.38h.3Zm-1.38,0h-.38V110.1a1.3,1.3,0,0,1-.49.35V110a.94.94,0,0,0,.33-.23,1,1,0,0,0,.24-.38h.3Zm10.2-1.64a6.15,6.15,0,0,1,.09,1.06c0,.19,0,.39,0,.58h-.07Zm-.1-.47c0,.13.06.26.09.38a1.21,1.21,0,0,1-.48.34V110a.94.94,0,0,0,.33-.23Zm-11.9-.31a.55.55,0,0,1,.4.27,1.86,1.86,0,0,1,.18,1,1.89,1.89,0,0,1-.18,1,.52.52,0,0,1-.46.27.41.41,0,0,1-.19,0,5.63,5.63,0,0,1,0-.58v-.07a1.23,1.23,0,0,0,0,.16q.08.15.18.15t.18-.15a4.11,4.11,0,0,0,0-1.4q-.08-.15-.18-.15h-.05C229.57,109.68,229.61,109.55,229.65,109.42Z"/><path class="cls-1" d="M239.32,115.59h-.38v-1.74a1.27,1.27,0,0,1-.49.35v-.42a1.11,1.11,0,0,0,.33-.22.89.89,0,0,0,.23-.38h.31Zm-1.87-2c-.07,0-.13,0-.17.15a2,2,0,0,0-.07.7,1.93,1.93,0,0,0,.07.69c0,.1.1.15.17.15s.14,0,.18-.15a2,2,0,0,0,.07-.69,2,2,0,0,0-.07-.7Q237.57,113.56,237.45,113.56Zm0-.38a.54.54,0,0,1,.47.27,2.62,2.62,0,0,1,0,1.91.54.54,0,0,1-.93,0,2.62,2.62,0,0,1,0-1.91A.53.53,0,0,1,237.45,113.18Zm-1.2,2.41h-.38v-1.74a1.2,1.2,0,0,1-.49.35v-.42a.91.91,0,0,0,.33-.22,1,1,0,0,0,.24-.38h.3Zm-1.86-2c-.08,0-.13,0-.18.15a2.29,2.29,0,0,0-.07.7,2.21,2.21,0,0,0,.07.69c0,.1.1.15.18.15s.13,0,.18-.15a2.38,2.38,0,0,0,.06-.69,2.42,2.42,0,0,0-.06-.7Q234.5,113.56,234.39,113.56Zm0-.38a.53.53,0,0,1,.46.27,2.62,2.62,0,0,1,0,1.91.53.53,0,0,1-.46.27.52.52,0,0,1-.46-.27,2.62,2.62,0,0,1,0-1.91A.52.52,0,0,1,234.39,113.18Zm-1.21,2.41h-.37v-1.74a1.27,1.27,0,0,1-.49.35v-.42a1,1,0,0,0,.32-.22.91.91,0,0,0,.24-.38h.3Zm-1.86-2c-.07,0-.13,0-.17.15a2,2,0,0,0-.07.7,1.93,1.93,0,0,0,.07.69c0,.1.1.15.17.15s.14,0,.18-.15a2,2,0,0,0,.07-.69,2,2,0,0,0-.07-.7Q231.44,113.56,231.32,113.56Zm9.82.37a6.15,6.15,0,0,1-.38.67c0-.06,0-.12,0-.19a2.29,2.29,0,0,0-.07-.7q-.06-.15-.18-.15t-.18.15a2.42,2.42,0,0,0-.06.7,2.33,2.33,0,0,0,.06.69l0,.05c-.09.1-.17.2-.26.29a.56.56,0,0,1-.05-.08,2.62,2.62,0,0,1,0-1.91.53.53,0,0,1,.46-.27.55.55,0,0,1,.47.27A1.23,1.23,0,0,1,241.14,113.93Zm-9.82-.75a.55.55,0,0,1,.47.27,1.86,1.86,0,0,1,.17,1,1.84,1.84,0,0,1-.17,1,.55.55,0,0,1-.47.27.44.44,0,0,1-.16,0c-.13-.14-.26-.28-.38-.43a2.34,2.34,0,0,1-.1-.78,1.82,1.82,0,0,1,.18-1A.53.53,0,0,1,231.32,113.18Z"/><path class="cls-1" d="M237.72,117.06l-.36.12h0a.19.19,0,0,0-.18-.14c-.07,0-.13,0-.18.14a.81.81,0,0,0,0,.11l-.4.08a1.07,1.07,0,0,1,.15-.44.52.52,0,0,1,.46-.28.54.54,0,0,1,.47.28.91.91,0,0,1,.07.14m-2.3.38-.39,0a1.13,1.13,0,0,1,.16-.5.51.51,0,0,1,.46-.28.52.52,0,0,1,.46.28,1,1,0,0,1,.15.48,2.34,2.34,0,0,1-.38,0,1,1,0,0,0,0-.26c-.05-.1-.11-.14-.18-.14a.19.19,0,0,0-.18.14A1,1,0,0,0,235.42,117.44Zm-1.69-.27a1.14,1.14,0,0,0,.17-.15.85.85,0,0,0,.24-.38h.3v.7A5.65,5.65,0,0,1,233.73,117.17Z"/><path class="cls-1" d="M225.51,106.85h-.32v-1.47a1.17,1.17,0,0,1-.41.3v-.36a.84.84,0,0,0,.27-.19.72.72,0,0,0,.2-.32h.26Zm-1.58-1.72c-.06,0-.11,0-.15.13a3.51,3.51,0,0,0,0,1.18q.06.12.15.12a.16.16,0,0,0,.15-.12,2.93,2.93,0,0,0,0-1.18C224.05,105.17,224,105.13,223.93,105.13Zm0-.32a.46.46,0,0,1,.4.23,1.56,1.56,0,0,1,.15.81,1.61,1.61,0,0,1-.15.81.45.45,0,0,1-.79,0,1.6,1.6,0,0,1-.15-.82,1.54,1.54,0,0,1,.15-.8A.46.46,0,0,1,223.93,104.81Zm-1.29.32c-.07,0-.12,0-.15.13a2.93,2.93,0,0,0,0,1.18.16.16,0,0,0,.15.12q.09,0,.15-.12a3.51,3.51,0,0,0,0-1.18C222.75,105.17,222.7,105.13,222.64,105.13Zm0-.32a.46.46,0,0,1,.39.23,1.56,1.56,0,0,1,.15.81,1.61,1.61,0,0,1-.15.81.46.46,0,0,1-.39.23.47.47,0,0,1-.4-.23,1.62,1.62,0,0,1-.14-.82,1.56,1.56,0,0,1,.14-.8A.47.47,0,0,1,222.64,104.81Zm-1,2h-.32v-1.47a1.12,1.12,0,0,1-.42.3v-.36a.77.77,0,0,0,.28-.19.72.72,0,0,0,.2-.32h.26Zm4.52-1.81.25.19s0,0,0,0a2.93,2.93,0,0,0,0,1.18.16.16,0,0,0,.15.12q.09,0,.15-.12a1.82,1.82,0,0,0,0-.59,3.33,3.33,0,0,0,0-.34,3.85,3.85,0,0,1,.35.35,1.57,1.57,0,0,1-.15.8.45.45,0,0,1-.78,0,1.6,1.6,0,0,1-.15-.82,1.54,1.54,0,0,1,.15-.8Zm-5.78-.1.08.1a1.56,1.56,0,0,1,.15.81,1.61,1.61,0,0,1-.15.81.47.47,0,0,1-.4.23.46.46,0,0,1-.39-.23,1.6,1.6,0,0,1-.15-.82,1.41,1.41,0,0,1,0-.21l.37-.34a2.38,2.38,0,0,0,0,.56,1.82,1.82,0,0,0,0,.59q.06.12.15.12a.16.16,0,0,0,.15-.12,2.93,2.93,0,0,0,0-1.18c0-.07-.06-.11-.11-.12Z"/><path class="cls-1" d="M227.08,108.13q-.09,0-.15.12a2.93,2.93,0,0,0,0,1.18c0,.09.09.13.15.13s.11,0,.15-.13a2.93,2.93,0,0,0,0-1.18q-.06-.12-.15-.12m0-.33a.46.46,0,0,1,.39.23,1.61,1.61,0,0,1,.15.81,1.56,1.56,0,0,1-.15.81.46.46,0,0,1-.39.23.44.44,0,0,1-.39-.23,1.56,1.56,0,0,1-.15-.81,1.61,1.61,0,0,1,.15-.81A.46.46,0,0,1,227.08,107.8Zm-1.3.33q-.09,0-.15.12a3.51,3.51,0,0,0,0,1.18c0,.09.09.13.15.13s.12,0,.15-.13a2.93,2.93,0,0,0,0-1.18A.16.16,0,0,0,225.78,108.13Zm0-.33a.47.47,0,0,1,.4.23,1.61,1.61,0,0,1,.15.81,1.56,1.56,0,0,1-.15.81.46.46,0,0,1-.4.23.44.44,0,0,1-.39-.23,1.56,1.56,0,0,1-.15-.81,1.61,1.61,0,0,1,.15-.81A.46.46,0,0,1,225.78,107.8Zm-1,2h-.32v-1.47a1,1,0,0,1-.41.29v-.35a.92.92,0,0,0,.28-.2.83.83,0,0,0,.2-.32h.25Zm-1.57-1.72q-.09,0-.15.12a2.93,2.93,0,0,0,0,1.18c0,.09.09.13.15.13s.11,0,.15-.13a2.93,2.93,0,0,0,0-1.18Q223.28,108.13,223.19,108.13Zm0-.33a.46.46,0,0,1,.39.23,1.61,1.61,0,0,1,.15.81,1.56,1.56,0,0,1-.15.81.46.46,0,0,1-.39.23.44.44,0,0,1-.39-.23,1.56,1.56,0,0,1-.15-.81,1.61,1.61,0,0,1,.15-.81A.46.46,0,0,1,223.19,107.8Zm-1.3.33q-.09,0-.15.12a2.93,2.93,0,0,0,0,1.18c0,.09.09.13.15.13s.12,0,.15-.13a2.93,2.93,0,0,0,0-1.18A.16.16,0,0,0,221.89,108.13Zm0-.33a.47.47,0,0,1,.4.23,1.75,1.75,0,0,1,.14.81,1.69,1.69,0,0,1-.14.81.47.47,0,0,1-.4.23.44.44,0,0,1-.39-.23,1.56,1.56,0,0,1-.15-.81,1.61,1.61,0,0,1,.15-.81A.46.46,0,0,1,221.89,107.8Zm-1,2h-.32v-1.47a1.06,1.06,0,0,1-.41.29v-.35a.92.92,0,0,0,.28-.2.7.7,0,0,0,.19-.32h.26Zm-1.17,0h-.32v-1.47a1.06,1.06,0,0,1-.41.29v-.35a.92.92,0,0,0,.28-.2.83.83,0,0,0,.2-.32h.25Zm8.64-1.39a5.29,5.29,0,0,1,.07.9c0,.16,0,.33,0,.49h0Zm-.09-.39a3,3,0,0,1,.07.32,1,1,0,0,1-.4.28v-.35a.92.92,0,0,0,.28-.2S228.24,108.09,228.25,108.07Zm-10.07-.27a.49.49,0,0,1,.34.23,1.61,1.61,0,0,1,.15.81,1.56,1.56,0,0,1-.15.81.46.46,0,0,1-.39.23.41.41,0,0,1-.16,0,4,4,0,0,1,0-.49v-.06a.33.33,0,0,0,0,.13c0,.09.09.13.15.13s.11,0,.15-.13a2.93,2.93,0,0,0,0-1.18q-.06-.12-.15-.12h0A2,2,0,0,1,218.18,107.8Z"/><path class="cls-1" d="M226.36,113H226v-1.47a1,1,0,0,1-.42.3v-.36a.77.77,0,0,0,.28-.19.72.72,0,0,0,.2-.32h.26Zm-1.58-1.72c-.06,0-.11,0-.15.13a3.51,3.51,0,0,0,0,1.18c0,.08.09.13.15.13s.12,0,.15-.13a2.93,2.93,0,0,0,0-1.18C224.9,111.34,224.85,111.3,224.78,111.3Zm0-.32a.46.46,0,0,1,.4.23,1.56,1.56,0,0,1,.15.81,1.61,1.61,0,0,1-.15.81.45.45,0,0,1-.79,0,2.26,2.26,0,0,1,0-1.62A.46.46,0,0,1,224.78,111Zm-1,2h-.31v-1.47a1,1,0,0,1-.42.3v-.36a.87.87,0,0,0,.28-.19.83.83,0,0,0,.2-.32h.25Zm-1.57-1.72c-.06,0-.11,0-.15.13a2.93,2.93,0,0,0,0,1.18c0,.08.09.13.15.13s.11,0,.15-.13a2.93,2.93,0,0,0,0-1.18C222.3,111.34,222.25,111.3,222.19,111.3Zm0-.32a.46.46,0,0,1,.39.23,1.56,1.56,0,0,1,.15.81,1.61,1.61,0,0,1-.15.81.45.45,0,0,1-.78,0,2.26,2.26,0,0,1,0-1.62A.46.46,0,0,1,222.19,111Zm-1,2h-.32v-1.47a1.06,1.06,0,0,1-.41.3v-.36a.75.75,0,0,0,.27-.19.72.72,0,0,0,.2-.32h.26Zm-1.57-1.72c-.07,0-.12,0-.16.13a3.51,3.51,0,0,0,0,1.18c0,.08.09.13.16.13s.11,0,.15-.13a3.51,3.51,0,0,0,0-1.18C219.71,111.34,219.66,111.3,219.6,111.3Zm8.3.32a6.38,6.38,0,0,1-.32.57V112a1.82,1.82,0,0,0-.05-.59c0-.09-.09-.13-.15-.13s-.12,0-.15.13a2.93,2.93,0,0,0,0,1.18.08.08,0,0,0,0,0c-.07.08-.14.17-.22.25l0-.07a2.26,2.26,0,0,1,0-1.62.45.45,0,0,1,.78,0A1.1,1.1,0,0,1,227.9,111.62Zm-8.3-.64a.46.46,0,0,1,.39.23,1.56,1.56,0,0,1,.15.81,1.61,1.61,0,0,1-.15.81.46.46,0,0,1-.39.23l-.14,0c-.12-.12-.22-.24-.33-.36a2.27,2.27,0,0,1-.08-.66,1.56,1.56,0,0,1,.15-.81A.46.46,0,0,1,219.6,111Z"/><path class="cls-1" d="M225,114.26l-.3.1h0a.16.16,0,0,0-.15-.12q-.09,0-.15.12a.2.2,0,0,0,0,.09l-.34.07a.9.9,0,0,1,.12-.38.46.46,0,0,1,.39-.23.47.47,0,0,1,.4.23.61.61,0,0,1,.05.12m-1.94.33-.33,0a1.22,1.22,0,0,1,.13-.43.45.45,0,0,1,.79,0,1.05,1.05,0,0,1,.12.42l-.32,0a.78.78,0,0,0,0-.22.18.18,0,0,0-.16-.12q-.09,0-.15.12A.88.88,0,0,0,223.06,114.59Zm-1.43-.23.15-.13a.83.83,0,0,0,.2-.32h.26v.6A6,6,0,0,1,221.63,114.36Z"/><path class="cls-1" d="M215.16,101.8h-.29v-1.31a.93.93,0,0,1-.37.26v-.31a.91.91,0,0,0,.25-.18.75.75,0,0,0,.18-.28h.23Zm-1.41-1.53c-.05,0-.1,0-.13.11a1.43,1.43,0,0,0-.05.52,1.47,1.47,0,0,0,.05.53.16.16,0,0,0,.13.11c.06,0,.1,0,.14-.11a1.76,1.76,0,0,0,.05-.53,1.72,1.72,0,0,0-.05-.52C213.85,100.3,213.81,100.27,213.75,100.27Zm0-.29a.41.41,0,0,1,.35.2,1.4,1.4,0,0,1,.14.72,1.35,1.35,0,0,1-.14.72.4.4,0,0,1-.35.21.42.42,0,0,1-.35-.2,1.43,1.43,0,0,1-.13-.73,1.41,1.41,0,0,1,.13-.72A.42.42,0,0,1,213.75,100Zm-1.15.29c-.06,0-.1,0-.14.11a1.72,1.72,0,0,0-.05.52,1.76,1.76,0,0,0,.05.53c0,.07.08.11.14.11a.16.16,0,0,0,.13-.11,1.76,1.76,0,0,0,.05-.53,1.72,1.72,0,0,0-.05-.52C212.7,100.3,212.65,100.27,212.6,100.27Zm0-.29a.42.42,0,0,1,.35.2,1.41,1.41,0,0,1,.13.72,1.36,1.36,0,0,1-.13.72.4.4,0,0,1-.7,0,1.41,1.41,0,0,1-.14-.73,1.4,1.4,0,0,1,.14-.72A.41.41,0,0,1,212.6,100Zm-.91,1.82h-.28v-1.31a.93.93,0,0,1-.37.26v-.31a.75.75,0,0,0,.24-.18.57.57,0,0,0,.18-.28h.23Zm4-1.62.22.17v0a1.72,1.72,0,0,0-.05.52,1.76,1.76,0,0,0,.05.53.14.14,0,0,0,.27,0,1.76,1.76,0,0,0,.05-.53c0-.12,0-.22,0-.3l.31.31a1.33,1.33,0,0,1-.14.71.39.39,0,0,1-.34.21.42.42,0,0,1-.36-.2,1.43,1.43,0,0,1-.13-.73,1.41,1.41,0,0,1,.13-.72Zm-5.15-.08.07.08a1.41,1.41,0,0,1,.13.72,1.36,1.36,0,0,1-.13.72.4.4,0,0,1-.7,0,1.41,1.41,0,0,1-.14-.73c0-.07,0-.13,0-.19s.22-.21.33-.3a2.39,2.39,0,0,0,0,.49,1.76,1.76,0,0,0,.05.53c0,.07.08.11.14.11a.16.16,0,0,0,.13-.11,1.76,1.76,0,0,0,.05-.53,1.72,1.72,0,0,0-.05-.52.16.16,0,0,0-.1-.11Z"/><path class="cls-1" d="M216.56,102.93a.16.16,0,0,0-.14.11,2.83,2.83,0,0,0,0,1.06.14.14,0,0,0,.27,0,2.83,2.83,0,0,0,0-1.06.16.16,0,0,0-.13-.11m0-.29a.41.41,0,0,1,.35.21,2.06,2.06,0,0,1,0,1.44.41.41,0,0,1-.35.21.4.4,0,0,1-.35-.21,1.37,1.37,0,0,1-.14-.72,1.4,1.4,0,0,1,.14-.72A.4.4,0,0,1,216.56,102.64Zm-1.16.29c-.06,0-.1,0-.13.11a2.83,2.83,0,0,0,0,1.06c0,.07.07.11.13.11s.1,0,.13-.11a2.83,2.83,0,0,0,0-1.06C215.5,103,215.46,102.93,215.4,102.93Zm0-.29a.41.41,0,0,1,.35.21,2.06,2.06,0,0,1,0,1.44.4.4,0,0,1-.7,0,1.39,1.39,0,0,1-.13-.72,1.41,1.41,0,0,1,.13-.72A.41.41,0,0,1,215.4,102.64Zm-.91,1.83h-.28v-1.31a1,1,0,0,1-.37.26v-.32a.71.71,0,0,0,.24-.17.59.59,0,0,0,.18-.29h.23Zm-1.4-1.54c-.06,0-.1,0-.13.11a2.37,2.37,0,0,0,0,1.06c0,.07.07.11.13.11s.1,0,.13-.11a2.83,2.83,0,0,0,0-1.06C213.19,103,213.15,102.93,213.09,102.93Zm0-.29a.41.41,0,0,1,.35.21,2.06,2.06,0,0,1,0,1.44.4.4,0,0,1-.7,0,1.39,1.39,0,0,1-.13-.72,1.41,1.41,0,0,1,.13-.72A.41.41,0,0,1,213.09,102.64Zm-1.16.29a.16.16,0,0,0-.13.11,2.83,2.83,0,0,0,0,1.06.14.14,0,0,0,.27,0,2.83,2.83,0,0,0,0-1.06A.16.16,0,0,0,211.93,102.93Zm0-.29a.38.38,0,0,1,.35.21,1.92,1.92,0,0,1,0,1.44.38.38,0,0,1-.34.21.41.41,0,0,1-.36-.21,1.5,1.5,0,0,1-.13-.72,1.53,1.53,0,0,1,.13-.72A.41.41,0,0,1,211.93,102.64Zm-.9,1.83h-.29v-1.31a1,1,0,0,1-.37.26v-.32a.85.85,0,0,0,.25-.17.79.79,0,0,0,.18-.29H211Zm-1.05,0h-.28v-1.31a1,1,0,0,1-.37.26v-.32a.85.85,0,0,0,.25-.17.66.66,0,0,0,.17-.29H210Zm7.69-1.24a4.25,4.25,0,0,1,.07.8c0,.15,0,.29,0,.44h-.05Zm-.07-.35.06.29a1,1,0,0,1-.36.25v-.32a.74.74,0,0,0,.25-.17Zm-9-.23a.4.4,0,0,1,.3.2,1.92,1.92,0,0,1,0,1.44.4.4,0,0,1-.35.21.32.32,0,0,1-.14,0,3.24,3.24,0,0,1,0-.44v0l0,.12a.16.16,0,0,0,.13.11c.06,0,.1,0,.14-.11a2.83,2.83,0,0,0,0-1.06c0-.07-.08-.11-.14-.11h0A2.45,2.45,0,0,1,208.63,102.65Z"/><path class="cls-1" d="M215.91,107.3h-.28V106a1,1,0,0,1-.37.26v-.32a.85.85,0,0,0,.25-.17.68.68,0,0,0,.17-.28h.23Zm-1.4-1.54c-.06,0-.1,0-.13.11a1.54,1.54,0,0,0,0,.53,1.5,1.5,0,0,0,0,.53c0,.07.07.11.13.11s.1,0,.13-.11a1.5,1.5,0,0,0,.05-.53,1.54,1.54,0,0,0-.05-.53C214.61,105.8,214.57,105.76,214.51,105.76Zm0-.28a.4.4,0,0,1,.35.2,2.06,2.06,0,0,1,0,1.44.4.4,0,0,1-.7,0,1.36,1.36,0,0,1-.13-.72,1.41,1.41,0,0,1,.13-.72A.4.4,0,0,1,214.51,105.48Zm-.91,1.82h-.28V106a1,1,0,0,1-.37.26v-.32a.71.71,0,0,0,.24-.17.61.61,0,0,0,.18-.28h.23Zm-1.4-1.54c-.06,0-.1,0-.14.11a1.85,1.85,0,0,0-.05.53,1.8,1.8,0,0,0,.05.53c0,.07.08.11.14.11s.1,0,.13-.11a1.5,1.5,0,0,0,0-.53,1.54,1.54,0,0,0,0-.53C212.3,105.8,212.26,105.76,212.2,105.76Zm0-.28a.4.4,0,0,1,.35.2,2.06,2.06,0,0,1,0,1.44.4.4,0,0,1-.7,0,1.36,1.36,0,0,1-.13-.72,1.41,1.41,0,0,1,.13-.72A.4.4,0,0,1,212.2,105.48Zm-.91,1.82H211V106a1,1,0,0,1-.37.26v-.32a.71.71,0,0,0,.24-.17.61.61,0,0,0,.18-.28h.23Zm-1.4-1.54c-.06,0-.1,0-.14.11a1.85,1.85,0,0,0-.05.53,1.8,1.8,0,0,0,.05.53c0,.07.08.11.14.11a.16.16,0,0,0,.13-.11,1.5,1.5,0,0,0,0-.53,1.54,1.54,0,0,0,0-.53A.16.16,0,0,0,209.89,105.76Zm7.39.29a3.53,3.53,0,0,1-.28.5v-.15a2,2,0,0,0,0-.53c0-.07-.08-.11-.14-.11s-.1,0-.13.11a1.54,1.54,0,0,0-.05.53,1.5,1.5,0,0,0,.05.53v0a2,2,0,0,1-.19.22l0-.06a1.36,1.36,0,0,1-.13-.72,1.41,1.41,0,0,1,.13-.72.41.41,0,0,1,.7,0A1,1,0,0,1,217.28,106.05Zm-7.39-.57a.4.4,0,0,1,.35.2,2.06,2.06,0,0,1,0,1.44.41.41,0,0,1-.35.21l-.12,0a2.89,2.89,0,0,1-.29-.32,1.9,1.9,0,0,1-.07-.59,1.41,1.41,0,0,1,.13-.72A.39.39,0,0,1,209.89,105.48Z"/><path class="cls-1" d="M214.71,108.4l-.27.09h0a.14.14,0,0,0-.14-.11c-.05,0-.1,0-.13.11a.15.15,0,0,0,0,.08l-.3.06a.86.86,0,0,1,.1-.34.42.42,0,0,1,.35-.2.41.41,0,0,1,.35.2l.06.11m-1.73.29-.3,0a.9.9,0,0,1,.12-.38.41.41,0,0,1,.35-.2.42.42,0,0,1,.35.2,1,1,0,0,1,.11.37l-.29,0a.61.61,0,0,0,0-.19c0-.08-.07-.11-.13-.11s-.1,0-.14.11A.7.7,0,0,0,213,108.69Zm-1.28-.21a.63.63,0,0,0,.13-.11.57.57,0,0,0,.18-.28h.23v.53A5.36,5.36,0,0,1,211.7,108.48Z"/></g></g></svg>